<svg id="图层_1" data-name="图层 1" xmlns="http://www.w3.org/2000/svg" xmlns:xlink="http://www.w3.org/1999/xlink" viewBox="0 0 577.07 217.07"><defs><style>.cls-1,.cls-12,.cls-14,.cls-3,.cls-9{fill:none;}.cls-2{fill:#fff;}.cls-3{stroke:#fff;}.cls-12,.cls-3{stroke-linecap:round;}.cls-12,.cls-14,.cls-3,.cls-9{stroke-linejoin:round;stroke-width:1.07px;}.cls-4{clip-path:url(#clip-path);}.cls-5{fill:#87bfdc;}.cls-6{fill:#f1c96c;}.cls-7{fill:#bebebe;opacity:0.5;}.cls-8{fill:#5ca076;opacity:0.3;}.cls-9{stroke:#ff4500;stroke-dasharray:4.27 4.27;}.cls-10{font-size:14px;fill:#006400;}.cls-10,.cls-11,.cls-13,.cls-17,.cls-20{font-family:Helvetica;}.cls-11,.cls-13,.cls-17{font-size:13px;}.cls-11{fill:#ff4500;}.cls-12,.cls-14{stroke:#333;}.cls-15,.cls-17{letter-spacing:-0.02em;}.cls-16{letter-spacing:-0.03em;}.cls-18{letter-spacing:0em;}.cls-19{letter-spacing:-0.02em;}.cls-20{font-size:15px;}.cls-21{letter-spacing:-0.05em;}.cls-22{letter-spacing:-0.01em;}</style><clipPath id="clip-path" transform="translate(0.54 0.54)"><rect class="cls-1" x="77.03" y="5.48" width="493.49" height="187.92"/></clipPath></defs><rect class="cls-2" x="0.54" y="0.54" width="576" height="216"/><rect class="cls-2" x="0.54" y="0.54" width="576" height="216"/><rect class="cls-3" x="0.54" y="0.54" width="576" height="216"/><g class="cls-4"><rect class="cls-2" x="77.56" y="6.01" width="493.49" height="187.92"/><rect class="cls-5" x="104.98" y="99.96" width="1.27" height="22.09"/><rect class="cls-5" x="114.83" y="99.98" width="1.27" height="25.02"/><rect class="cls-5" x="124.67" y="99.98" width="1.27" height="19.99"/><rect class="cls-5" x="134.51" y="99.97" width="1.27" height="49.42"/><rect class="cls-5" x="144.37" y="99.98" width="1.27" height="58.98"/><rect class="cls-5" x="154.2" y="99.98" width="1.27" height="61.22"/><rect class="cls-5" x="164.06" y="99.97" width="1.27" height="57.45"/><rect class="cls-5" x="173.9" y="99.98" width="1.27" height="47.22"/><rect class="cls-5" x="183.75" y="99.98" width="1.27" height="38.96"/><rect class="cls-5" x="193.59" y="99.96" width="1.27" height="38.27"/><rect class="cls-5" x="203.43" y="99.97" width="1.27" height="10.4"/><rect class="cls-6" x="213.28" y="86.69" width="1.27" height="13.29"/><rect class="cls-5" x="223.12" y="99.96" width="1.27" height="8.77"/><rect class="cls-5" x="232.96" y="99.97" width="1.27" height="2.15"/><rect class="cls-5" x="242.81" y="99.97" width="1.27" height="11.56"/><rect class="cls-5" x="252.65" y="99.98" width="1.27" height="20.85"/><rect class="cls-5" x="262.49" y="99.97" width="1.27" height="17.33"/><rect class="cls-6" x="272.34" y="58.55" width="1.27" height="41.43"/><rect class="cls-5" x="282.18" y="99.97" width="1.27" height="29.9"/><rect class="cls-5" x="292.04" y="99.97" width="1.27" height="27.26"/><rect class="cls-5" x="301.87" y="99.97" width="1.27" height="25.33"/><rect class="cls-5" x="311.73" y="99.98" width="1.27" height="25.96"/><rect class="cls-5" x="321.56" y="99.98" width="1.27" height="27.49"/><rect class="cls-5" x="331.42" y="99.98" width="1.27" height="30.45"/><rect class="cls-5" x="341.26" y="99.98" width="1.27" height="34.07"/><rect class="cls-5" x="351.09" y="99.97" width="1.27" height="12.51"/><rect class="cls-5" x="360.95" y="99.98" width="1.27" height="26.56"/><rect class="cls-5" x="370.79" y="99.97" width="1.27" height="22.44"/><rect class="cls-5" x="380.64" y="99.98" width="1.27" height="23.77"/><rect class="cls-5" x="390.48" y="99.98" width="1.27" height="21.47"/><rect class="cls-5" x="400.33" y="99.98" width="1.27" height="16.41"/><rect class="cls-5" x="410.17" y="99.98" width="1.27" height="10.17"/><rect class="cls-5" x="420.02" y="99.98" width="1.27" height="12.6"/><rect class="cls-5" x="429.86" y="99.98" width="1.27" height="8.16"/><rect class="cls-5" x="439.71" y="99.97" width="1.27" height="21.94"/><rect class="cls-5" x="449.55" y="99.98" width="1.27" height="28.16"/><rect class="cls-5" x="459.39" y="99.98" width="1.27" height="31.81"/><rect class="cls-5" x="469.24" y="99.96" width="1.27" height="30.45"/><rect class="cls-5" x="479.08" y="99.98" width="1.27" height="38.2"/><rect class="cls-6" x="488.93" y="33.23" width="1.27" height="66.75"/><rect class="cls-5" x="498.77" y="99.98" width="1.27" height="33.63"/><rect class="cls-5" x="508.61" y="99.97" width="1.27" height="56.87"/><rect class="cls-5" x="518.45" y="99.96" width="1.27" height="41.74"/><rect class="cls-5" x="528.31" y="99.97" width="1.27" height="41.12"/><rect class="cls-5" x="538.14" y="99.98" width="1.27" height="42.31"/><rect class="cls-5" x="106.4" y="99.97" width="1.27" height="24.4"/><rect class="cls-5" x="116.23" y="99.97" width="1.27" height="24.73"/><rect class="cls-5" x="126.09" y="99.98" width="1.27" height="22.84"/><rect class="cls-5" x="135.92" y="99.98" width="1.27" height="51.88"/><rect class="cls-5" x="145.76" y="99.98" width="1.27" height="60.56"/><rect class="cls-5" x="155.62" y="99.97" width="1.27" height="61.06"/><rect class="cls-5" x="165.45" y="99.97" width="1.27" height="56.7"/><rect class="cls-5" x="175.31" y="99.98" width="1.27" height="47.02"/><rect class="cls-5" x="185.15" y="99.98" width="1.27" height="38.8"/><rect class="cls-5" x="195" y="99.97" width="1.27" height="38.08"/><rect class="cls-5" x="204.84" y="99.97" width="1.27" height="6.51"/><rect class="cls-6" x="214.68" y="88.66" width="1.27" height="11.32"/><rect class="cls-5" x="224.53" y="99.98" width="1.27" height="11.2"/><rect class="cls-5" x="234.37" y="99.98" width="1.27" height="2.45"/><rect class="cls-5" x="244.21" y="99.97" width="1.27" height="11.51"/><rect class="cls-5" x="254.06" y="99.98" width="1.27" height="23.27"/><rect class="cls-5" x="263.9" y="99.98" width="1.27" height="16.04"/><rect class="cls-6" x="273.74" y="60.7" width="1.27" height="39.27"/><rect class="cls-5" x="283.59" y="99.98" width="1.27" height="31.59"/><rect class="cls-5" x="293.43" y="99.98" width="1.27" height="27.96"/><rect class="cls-5" x="303.29" y="99.98" width="1.27" height="25.31"/><rect class="cls-5" x="313.12" y="99.97" width="1.27" height="26.67"/><rect class="cls-5" x="322.98" y="99.98" width="1.27" height="28.38"/><rect class="cls-5" x="332.81" y="99.98" width="1.27" height="32.07"/><rect class="cls-5" x="342.67" y="99.98" width="1.27" height="26.3"/><rect class="cls-5" x="352.51" y="99.98" width="1.27" height="20.53"/><rect class="cls-5" x="362.36" y="99.97" width="1.27" height="26.58"/><rect class="cls-5" x="372.2" y="99.98" width="1.27" height="22.88"/><rect class="cls-5" x="382.04" y="99.98" width="1.27" height="23.66"/><rect class="cls-5" x="391.89" y="99.98" width="1.27" height="21.99"/><rect class="cls-5" x="401.73" y="99.97" width="1.27" height="16.42"/><rect class="cls-5" x="411.58" y="99.97" width="1.27" height="10.08"/><rect class="cls-5" x="421.42" y="99.98" width="1.27" height="14.07"/><rect class="cls-5" x="431.27" y="99.97" width="1.27" height="9.05"/><rect class="cls-5" x="441.11" y="99.98" width="1.27" height="23.31"/><rect class="cls-5" x="450.96" y="99.96" width="1.27" height="30.02"/><rect class="cls-5" x="460.8" y="99.98" width="1.27" height="32"/><rect class="cls-5" x="470.64" y="99.98" width="1.27" height="31.16"/><rect class="cls-5" x="480.49" y="99.97" width="1.27" height="25.65"/><rect class="cls-6" x="490.33" y="40.42" width="1.27" height="59.55"/><rect class="cls-5" x="500.18" y="99.98" width="1.27" height="44.43"/><rect class="cls-5" x="510.02" y="99.98" width="1.27" height="57.9"/><rect class="cls-5" x="519.87" y="99.97" width="1.27" height="40.85"/><rect class="cls-5" x="529.7" y="99.98" width="1.27" height="41.38"/><rect class="cls-5" x="539.56" y="99.97" width="1.27" height="42.33"/><rect class="cls-5" x="107.8" y="99.98" width="1.27" height="25.31"/><rect class="cls-5" x="117.65" y="99.98" width="1.27" height="24.38"/><rect class="cls-5" x="127.48" y="99.98" width="1.27" height="26.1"/><rect class="cls-5" x="137.34" y="99.98" width="1.27" height="56.09"/><rect class="cls-5" x="147.17" y="99.98" width="1.27" height="61.12"/><rect class="cls-5" x="157.03" y="99.97" width="1.27" height="60.27"/><rect class="cls-5" x="166.87" y="99.98" width="1.27" height="58.89"/><rect class="cls-5" x="176.7" y="99.97" width="1.27" height="46.1"/><rect class="cls-5" x="186.56" y="99.96" width="1.27" height="41.2"/><rect class="cls-5" x="196.4" y="99.98" width="1.27" height="37.6"/><rect class="cls-5" x="206.25" y="99.97" width="1.27" height="2.25"/><rect class="cls-6" x="216.09" y="93.37" width="1.27" height="6.61"/><rect class="cls-5" x="225.93" y="99.98" width="1.27" height="14.04"/><rect class="cls-5" x="235.78" y="99.98" width="1.27" height="4.34"/><rect class="cls-5" x="245.62" y="99.97" width="1.27" height="12.69"/><rect class="cls-5" x="255.46" y="99.97" width="1.27" height="24.67"/><rect class="cls-5" x="265.31" y="99.98" width="1.27" height="5.99"/><rect class="cls-6" x="275.15" y="75.2" width="1.27" height="24.77"/><rect class="cls-5" x="285.01" y="99.98" width="1.27" height="32.69"/><rect class="cls-5" x="294.84" y="99.97" width="1.27" height="29.85"/><rect class="cls-5" x="304.68" y="99.98" width="1.27" height="26.29"/><rect class="cls-5" x="314.54" y="99.98" width="1.27" height="27.71"/><rect class="cls-5" x="324.37" y="99.98" width="1.27" height="29.34"/><rect class="cls-5" x="334.23" y="99.98" width="1.27" height="34.51"/><rect class="cls-5" x="344.06" y="99.97" width="1.27" height="17.44"/><rect class="cls-5" x="353.92" y="99.98" width="1.27" height="31.48"/><rect class="cls-5" x="363.76" y="99.97" width="1.27" height="27.19"/><rect class="cls-5" x="373.61" y="99.98" width="1.27" height="24.21"/><rect class="cls-5" x="383.45" y="99.97" width="1.27" height="24.69"/><rect class="cls-5" x="393.3" y="99.98" width="1.27" height="22.8"/><rect class="cls-5" x="403.14" y="99.98" width="1.27" height="16.84"/><rect class="cls-5" x="412.98" y="99.97" width="1.27" height="11"/><rect class="cls-5" x="422.83" y="99.97" width="1.27" height="16.33"/><rect class="cls-5" x="432.67" y="99.96" width="1.27" height="11.77"/><rect class="cls-5" x="442.52" y="99.98" width="1.27" height="25.43"/><rect class="cls-5" x="452.36" y="99.98" width="1.27" height="32.13"/><rect class="cls-5" x="462.21" y="99.98" width="1.27" height="32.72"/><rect class="cls-5" x="472.05" y="99.96" width="1.27" height="32.99"/><rect class="cls-5" x="481.89" y="99.98" width="1.27" height="11.68"/><rect class="cls-6" x="491.74" y="56.98" width="1.27" height="43"/><rect class="cls-5" x="501.58" y="99.98" width="1.27" height="49.22"/><rect class="cls-5" x="511.43" y="99.97" width="1.27" height="57.15"/><rect class="cls-5" x="521.27" y="99.98" width="1.27" height="42.6"/><rect class="cls-5" x="531.12" y="99.97" width="1.27" height="42.33"/><rect class="cls-5" x="540.95" y="99.98" width="1.27" height="43.61"/><rect class="cls-5" x="109.2" y="99.98" width="1.27" height="23.67"/><rect class="cls-5" x="119.05" y="99.98" width="1.27" height="22.88"/><rect class="cls-5" x="128.9" y="99.98" width="1.27" height="26.74"/><rect class="cls-5" x="138.73" y="99.97" width="1.27" height="59.22"/><rect class="cls-5" x="148.59" y="99.97" width="1.27" height="59.23"/><rect class="cls-5" x="158.42" y="99.98" width="1.27" height="59.98"/><rect class="cls-5" x="168.28" y="99.98" width="1.27" height="55.73"/><rect class="cls-5" x="178.12" y="99.96" width="1.27" height="39.84"/><rect class="cls-5" x="187.96" y="99.98" width="1.27" height="42.61"/><rect class="cls-5" x="197.81" y="99.97" width="1.27" height="31.61"/><rect class="cls-6" x="207.65" y="96.04" width="1.27" height="3.94"/><rect class="cls-6" x="217.5" y="95.62" width="1.27" height="4.36"/><rect class="cls-5" x="227.34" y="99.98" width="1.27" height="12.72"/><rect class="cls-5" x="237.18" y="99.98" width="1.27" height="4.81"/><rect class="cls-5" x="247.03" y="99.97" width="1.27" height="9.62"/><rect class="cls-5" x="256.87" y="99.98" width="1.27" height="20.86"/><rect class="cls-6" x="266.71" y="93.05" width="1.27" height="6.93"/><rect class="cls-6" x="276.56" y="90.31" width="1.27" height="9.67"/><rect class="cls-5" x="286.4" y="99.98" width="1.27" height="29.06"/><rect class="cls-5" x="296.26" y="99.98" width="1.27" height="26.16"/><rect class="cls-5" x="306.09" y="99.96" width="1.27" height="26.41"/><rect class="cls-5" x="315.95" y="99.97" width="1.27" height="25.22"/><rect class="cls-5" x="325.79" y="99.98" width="1.27" height="27.54"/><rect class="cls-5" x="335.62" y="99.98" width="1.27" height="35.3"/><rect class="cls-5" x="345.48" y="99.97" width="1.27" height="11.94"/><rect class="cls-5" x="355.31" y="99.98" width="1.27" height="32.79"/><rect class="cls-5" x="365.17" y="99.98" width="1.27" height="24.73"/><rect class="cls-5" x="375.01" y="99.98" width="1.27" height="22.75"/><rect class="cls-5" x="384.86" y="99.97" width="1.27" height="22.69"/><rect class="cls-5" x="394.7" y="99.97" width="1.27" height="19.44"/><rect class="cls-5" x="404.55" y="99.97" width="1.27" height="14.65"/><rect class="cls-5" x="414.39" y="99.97" width="1.27" height="9.19"/><rect class="cls-5" x="424.24" y="99.98" width="1.27" height="13.84"/><rect class="cls-5" x="434.08" y="99.98" width="1.27" height="12.82"/><rect class="cls-5" x="443.92" y="99.98" width="1.27" height="24.1"/><rect class="cls-5" x="453.77" y="99.98" width="1.27" height="31.25"/><rect class="cls-5" x="463.61" y="99.97" width="1.27" height="31.33"/><rect class="cls-5" x="473.46" y="99.98" width="1.27" height="33.45"/><rect class="cls-6" x="483.3" y="94.85" width="1.27" height="5.13"/><rect class="cls-6" x="493.14" y="71.67" width="1.27" height="28.31"/><rect class="cls-5" x="502.99" y="99.98" width="1.27" height="46.54"/><rect class="cls-5" x="512.83" y="99.98" width="1.27" height="54.19"/><rect class="cls-5" x="522.68" y="99.96" width="1.27" height="41.52"/><rect class="cls-5" x="532.52" y="99.97" width="1.27" height="40.9"/><rect class="cls-5" x="542.37" y="99.98" width="1.27" height="43.94"/><rect class="cls-6" x="100.77" y="95.54" width="1.27" height="4.44"/><rect class="cls-5" x="110.62" y="99.97" width="1.27" height="22.07"/><rect class="cls-5" x="120.45" y="99.97" width="1.27" height="22.72"/><rect class="cls-5" x="130.29" y="99.98" width="1.27" height="34.41"/><rect class="cls-5" x="140.15" y="99.97" width="1.27" height="56.1"/><rect class="cls-5" x="149.98" y="99.97" width="1.27" height="60.97"/><rect class="cls-5" x="159.84" y="99.98" width="1.27" height="58.57"/><rect class="cls-5" x="169.67" y="99.97" width="1.27" height="52.42"/><rect class="cls-5" x="179.53" y="99.97" width="1.27" height="37.25"/><rect class="cls-5" x="189.37" y="99.97" width="1.27" height="41.9"/><rect class="cls-5" x="199.21" y="99.98" width="1.27" height="21.99"/><rect class="cls-6" x="209.06" y="91.7" width="1.27" height="8.27"/><rect class="cls-5" x="218.9" y="99.98" width="1.27" height="1.27"/><rect class="cls-5" x="228.75" y="99.98" width="1.27" height="6.7"/><rect class="cls-5" x="238.59" y="99.97" width="1.27" height="4.25"/><rect class="cls-5" x="248.43" y="99.97" width="1.27" height="13.4"/><rect class="cls-5" x="258.27" y="99.97" width="1.27" height="22.11"/><rect class="cls-6" x="268.12" y="78.31" width="1.27" height="21.67"/><rect class="cls-5" x="277.96" y="99.98" width="1.27" height="2.57"/><rect class="cls-5" x="287.81" y="99.97" width="1.27" height="29.78"/><rect class="cls-5" x="297.65" y="99.98" width="1.27" height="22.11"/><rect class="cls-5" x="307.51" y="99.97" width="1.27" height="26.49"/><rect class="cls-5" x="317.34" y="99.98" width="1.27" height="24.72"/><rect class="cls-5" x="327.2" y="99.97" width="1.27" height="27.94"/><rect class="cls-5" x="337.04" y="99.97" width="1.27" height="33.98"/><rect class="cls-5" x="346.89" y="99.97" width="1.27" height="14.85"/><rect class="cls-5" x="356.73" y="99.97" width="1.27" height="27.58"/><rect class="cls-5" x="366.56" y="99.98" width="1.27" height="23.13"/><rect class="cls-5" x="376.42" y="99.98" width="1.27" height="22.42"/><rect class="cls-5" x="386.26" y="99.97" width="1.27" height="21.19"/><rect class="cls-5" x="396.11" y="99.98" width="1.27" height="18.17"/><rect class="cls-5" x="405.95" y="99.98" width="1.27" height="11.73"/><rect class="cls-5" x="415.8" y="99.98" width="1.27" height="9.73"/><rect class="cls-5" x="425.64" y="99.97" width="1.27" height="12.63"/><rect class="cls-5" x="435.49" y="99.97" width="1.27" height="14.21"/><rect class="cls-5" x="445.33" y="99.97" width="1.27" height="23.04"/><rect class="cls-5" x="455.18" y="99.97" width="1.27" height="30.9"/><rect class="cls-5" x="465.02" y="99.98" width="1.27" height="29.59"/><rect class="cls-5" x="474.86" y="99.97" width="1.27" height="38.15"/><rect class="cls-6" x="484.71" y="76.87" width="1.27" height="23.1"/><rect class="cls-6" x="494.55" y="83.37" width="1.27" height="16.6"/><rect class="cls-5" x="504.39" y="99.98" width="1.27" height="46.53"/><rect class="cls-5" x="514.24" y="99.97" width="1.27" height="50.68"/><rect class="cls-5" x="524.08" y="99.97" width="1.27" height="41.36"/><rect class="cls-5" x="533.93" y="99.98" width="1.27" height="40.48"/><rect class="cls-5" x="543.77" y="99.96" width="1.27" height="44.74"/><rect class="cls-6" x="102.17" y="92.94" width="1.27" height="7.04"/><rect class="cls-5" x="112.02" y="99.98" width="1.27" height="24.03"/><rect class="cls-5" x="121.87" y="99.98" width="1.27" height="20.25"/><rect class="cls-5" x="131.7" y="99.98" width="1.27" height="40.17"/><rect class="cls-5" x="141.56" y="99.97" width="1.27" height="57.38"/><rect class="cls-5" x="151.4" y="99.98" width="1.27" height="61.1"/><rect class="cls-5" x="161.23" y="99.98" width="1.27" height="57.92"/><rect class="cls-5" x="171.09" y="99.98" width="1.27" height="50.86"/><rect class="cls-5" x="180.92" y="99.97" width="1.27" height="37.47"/><rect class="cls-5" x="190.78" y="99.98" width="1.27" height="41.8"/><rect class="cls-5" x="200.62" y="99.97" width="1.27" height="17.49"/><rect class="cls-6" x="210.46" y="88.23" width="1.27" height="11.74"/><rect class="cls-5" x="220.31" y="99.98" width="1.27" height="4.61"/><rect class="cls-5" x="230.15" y="99.96" width="1.27" height="0.91"/><rect class="cls-5" x="240" y="99.97" width="1.27" height="10.07"/><rect class="cls-5" x="249.84" y="99.98" width="1.27" height="15.46"/><rect class="cls-5" x="259.68" y="99.97" width="1.27" height="21.51"/><rect class="cls-6" x="269.54" y="65.77" width="1.27" height="34.21"/><rect class="cls-5" x="279.37" y="99.97" width="1.27" height="17.25"/><rect class="cls-5" x="289.21" y="99.98" width="1.27" height="29.34"/><rect class="cls-5" x="299.06" y="99.96" width="1.27" height="22.2"/><rect class="cls-5" x="308.9" y="99.98" width="1.27" height="24.17"/><rect class="cls-5" x="318.76" y="99.98" width="1.27" height="27.36"/><rect class="cls-5" x="328.59" y="99.98" width="1.27" height="28.89"/><rect class="cls-5" x="338.45" y="99.98" width="1.27" height="34"/><rect class="cls-5" x="348.29" y="99.97" width="1.27" height="14.44"/><rect class="cls-5" x="358.14" y="99.97" width="1.27" height="26.51"/><rect class="cls-5" x="367.98" y="99.98" width="1.27" height="22.66"/><rect class="cls-5" x="377.83" y="99.97" width="1.27" height="23.36"/><rect class="cls-5" x="387.67" y="99.96" width="1.27" height="20.7"/><rect class="cls-5" x="397.51" y="99.98" width="1.27" height="17.17"/><rect class="cls-5" x="407.36" y="99.98" width="1.27" height="10.77"/><rect class="cls-5" x="417.2" y="99.98" width="1.27" height="10.91"/><rect class="cls-5" x="427.05" y="99.97" width="1.27" height="11.76"/><rect class="cls-5" x="436.89" y="99.98" width="1.27" height="15.99"/><rect class="cls-5" x="446.74" y="99.97" width="1.27" height="24.58"/><rect class="cls-5" x="456.58" y="99.97" width="1.27" height="31.38"/><rect class="cls-5" x="466.43" y="99.98" width="1.27" height="29.6"/><rect class="cls-5" x="476.27" y="99.97" width="1.27" height="38.83"/><rect class="cls-6" x="486.11" y="58.45" width="1.27" height="41.53"/><rect class="cls-5" x="495.96" y="99.98" width="1.27" height="1.64"/><rect class="cls-5" x="505.8" y="99.98" width="1.27" height="48.17"/><rect class="cls-5" x="515.64" y="99.98" width="1.27" height="50.22"/><rect class="cls-5" x="525.49" y="99.97" width="1.27" height="41.14"/><rect class="cls-5" x="535.33" y="99.98" width="1.27" height="40.48"/><rect class="cls-5" x="545.18" y="99.98" width="1.27" height="45.84"/><rect class="cls-6" x="103.58" y="98.13" width="1.27" height="1.85"/><rect class="cls-5" x="113.42" y="99.98" width="1.27" height="26.92"/><rect class="cls-5" x="123.27" y="99.98" width="1.27" height="20.06"/><rect class="cls-5" x="133.12" y="99.98" width="1.27" height="46.78"/><rect class="cls-5" x="142.95" y="99.98" width="1.27" height="58.47"/><rect class="cls-5" x="152.81" y="99.97" width="1.27" height="62.19"/><rect class="cls-5" x="162.65" y="99.97" width="1.27" height="58.21"/><rect class="cls-5" x="172.5" y="99.97" width="1.27" height="49.9"/><rect class="cls-5" x="182.34" y="99.98" width="1.27" height="39.12"/><rect class="cls-5" x="192.17" y="99.98" width="1.27" height="41.34"/><rect class="cls-5" x="202.03" y="99.98" width="1.27" height="15.43"/><rect class="cls-6" x="211.87" y="88.25" width="1.27" height="11.73"/><rect class="cls-5" x="221.71" y="99.98" width="1.27" height="9.16"/><rect class="cls-5" x="231.56" y="99.97" width="1.27" height="1.85"/><rect class="cls-5" x="241.4" y="99.97" width="1.27" height="12.69"/><rect class="cls-5" x="251.25" y="99.98" width="1.27" height="19.35"/><rect class="cls-5" x="261.09" y="99.97" width="1.27" height="20.36"/><rect class="cls-6" x="270.93" y="60.86" width="1.27" height="39.12"/><rect class="cls-5" x="280.79" y="99.97" width="1.27" height="28.24"/><rect class="cls-5" x="290.62" y="99.97" width="1.27" height="30.51"/><rect class="cls-5" x="300.48" y="99.98" width="1.27" height="23.93"/><rect class="cls-5" x="310.31" y="99.98" width="1.27" height="26.02"/><rect class="cls-5" x="320.15" y="99.98" width="1.27" height="28.59"/><rect class="cls-5" x="330.01" y="99.98" width="1.27" height="31.13"/><rect class="cls-5" x="339.84" y="99.97" width="1.27" height="35.03"/><rect class="cls-5" x="349.7" y="99.97" width="1.27" height="14.69"/><rect class="cls-5" x="359.54" y="99.97" width="1.27" height="27.15"/><rect class="cls-5" x="369.39" y="99.98" width="1.27" height="23.73"/><rect class="cls-5" x="379.23" y="99.97" width="1.27" height="24.94"/><rect class="cls-5" x="389.08" y="99.98" width="1.27" height="22.35"/><rect class="cls-5" x="398.92" y="99.97" width="1.27" height="17.76"/><rect class="cls-5" x="408.77" y="99.97" width="1.27" height="11.87"/><rect class="cls-5" x="418.61" y="99.97" width="1.27" height="13.44"/><rect class="cls-5" x="428.45" y="99.97" width="1.27" height="9.74"/><rect class="cls-5" x="438.3" y="99.98" width="1.27" height="21.14"/><rect class="cls-5" x="448.14" y="99.98" width="1.27" height="27.97"/><rect class="cls-5" x="457.99" y="99.98" width="1.27" height="32.54"/><rect class="cls-5" x="467.83" y="99.97" width="1.27" height="31.07"/><rect class="cls-5" x="477.68" y="99.98" width="1.27" height="40.35"/><rect class="cls-6" x="487.52" y="45.29" width="1.27" height="54.69"/><rect class="cls-5" x="497.36" y="99.98" width="1.27" height="20.29"/><rect class="cls-5" x="507.21" y="99.98" width="1.27" height="53.24"/><rect class="cls-5" x="517.06" y="99.98" width="1.27" height="47.35"/><rect class="cls-5" x="526.89" y="99.97" width="1.27" height="42.39"/><rect class="cls-5" x="536.75" y="99.97" width="1.27" height="42.26"/><rect class="cls-5" x="546.58" y="99.98" width="1.27" height="46.64"/><rect class="cls-7" x="126.72" y="6.01" width="54.85" height="187.92"/><rect class="cls-8" x="99.99" y="99.98" width="1.41" height="93.96"/><rect class="cls-8" x="132.34" y="99.98" width="12.66" height="93.96"/><rect class="cls-8" x="232.2" y="99.98" width="2.81" height="93.96"/><rect class="cls-8" x="270.17" y="99.98" width="5.63" height="93.96"/><rect class="cls-8" x="347.52" y="99.98" width="2.81" height="93.96"/><rect class="cls-8" x="485.33" y="99.98" width="9.84" height="93.96"/><line class="cls-9" x1="112.65" y1="99.98" x2="112.65" y2="19.43"/><line class="cls-9" x1="126.72" y1="99.98" x2="126.72" y2="19.43"/><line class="cls-9" x1="133.75" y1="99.98" x2="133.75" y2="19.43"/><line class="cls-9" x1="181.56" y1="99.98" x2="181.56" y2="19.43"/><text class="cls-10" transform="translate(96.1 191.24)">a</text><text class="cls-10" transform="translate(134.08 191.24)">b</text><text class="cls-10" transform="translate(230.1 191.24)">c</text><text class="cls-10" transform="translate(269.08 191.24)">d</text><text class="cls-10" transform="translate(345.03 191.24)">e</text><text class="cls-10" transform="translate(489.02 191.24)">f</text><text class="cls-11" transform="translate(108.31 18.74)">A</text><text class="cls-11" transform="translate(120.97 18.74)">B</text><text class="cls-11" transform="translate(130.45 18.74)">C</text><text class="cls-11" transform="translate(176.87 18.74)">D</text><rect class="cls-12" x="77.56" y="6.01" width="493.49" height="187.92"/></g><text class="cls-13" transform="translate(39.03 171.75)">−50%</text><text class="cls-13" transform="translate(65.41 104.64)">0</text><text class="cls-13" transform="translate(39.03 37.53)">+50%</text><line class="cls-14" x1="74.83" y1="167.08" x2="77.56" y2="167.08"/><line class="cls-14" x1="74.83" y1="99.98" x2="77.56" y2="99.98"/><line class="cls-14" x1="74.83" y1="32.86" x2="77.56" y2="32.86"/><line class="cls-14" x1="99.99" y1="196.66" x2="99.99" y2="193.93"/><line class="cls-14" x1="184.37" y1="196.66" x2="184.37" y2="193.93"/><line class="cls-14" x1="270.17" y1="196.66" x2="270.17" y2="193.93"/><line class="cls-14" x1="355.96" y1="196.66" x2="355.96" y2="193.93"/><line class="cls-14" x1="443.14" y1="196.66" x2="443.14" y2="193.93"/><line class="cls-14" x1="528.94" y1="196.66" x2="528.94" y2="193.93"/><text class="cls-13" transform="translate(89.64 208.2)"><tspan class="cls-15">J</tspan><tspan x="6.24" y="0">an</tspan></text><text class="cls-13" transform="translate(173.18 208.2)">Mar</text><text class="cls-13" transform="translate(258.08 208.2)">M<tspan class="cls-16" x="10.83" y="0">a</tspan><tspan x="17.67" y="0">y</tspan></text><text class="cls-17" transform="translate(347.78 208.2)">J<tspan class="cls-18" x="6.24" y="0">ul</tspan></text><text class="cls-13" transform="translate(431.58 208.2)">Sep</text><text class="cls-13" transform="translate(517.48 208.2)">N<tspan class="cls-19" x="9.39" y="0">o</tspan><tspan x="16.42" y="0">v</tspan></text><text class="cls-20" transform="translate(16.78 164.63) rotate(-90)"><tspan class="cls-21">P</tspan><tspan x="9.25" y="0">ercentage change</tspan></text><text class="cls-20" transform="translate(32.98 160.33) rotate(-90)">in <tspan class="cls-22" x="15.84" y="0">n</tspan><tspan x="24.03" y="0">umber of visits</tspan></text></svg>