<svg id="图层_1" data-name="图层 1" xmlns="http://www.w3.org/2000/svg" xmlns:xlink="http://www.w3.org/1999/xlink" viewBox="0 0 577.07 217.07"><defs><style>.cls-1,.cls-12,.cls-14,.cls-3,.cls-9{fill:none;}.cls-2{fill:#fff;}.cls-3{stroke:#fff;}.cls-12,.cls-3{stroke-linecap:round;}.cls-12,.cls-14,.cls-3,.cls-9{stroke-linejoin:round;stroke-width:1.07px;}.cls-4{clip-path:url(#clip-path);}.cls-5{fill:#f1c96c;}.cls-6{fill:#87bfdc;}.cls-7{fill:#bebebe;opacity:0.5;}.cls-8{fill:#5ca076;opacity:0.3;}.cls-9{stroke:#ff4500;stroke-dasharray:4.27 4.27;}.cls-10{font-size:14px;fill:#006400;}.cls-10,.cls-11,.cls-13,.cls-17,.cls-20{font-family:Helvetica;}.cls-11,.cls-13,.cls-17{font-size:13px;}.cls-11{fill:#ff4500;}.cls-12,.cls-14{stroke:#333;}.cls-15,.cls-17{letter-spacing:-0.02em;}.cls-16{letter-spacing:-0.03em;}.cls-18{letter-spacing:0em;}.cls-19{letter-spacing:-0.02em;}.cls-20{font-size:15px;}.cls-21{letter-spacing:-0.05em;}.cls-22{letter-spacing:-0.01em;}</style><clipPath id="clip-path" transform="translate(0.54 0.54)"><rect class="cls-1" x="77.03" y="5.48" width="493.49" height="187.92"/></clipPath></defs><rect class="cls-2" x="0.54" y="0.54" width="576" height="216"/><rect class="cls-2" x="0.54" y="0.54" width="576" height="216"/><rect class="cls-3" x="0.54" y="0.54" width="576" height="216"/><g class="cls-4"><rect class="cls-2" x="77.56" y="6.01" width="493.49" height="187.92"/><rect class="cls-5" x="104.98" y="88.75" width="1.27" height="11.23"/><rect class="cls-5" x="114.83" y="92.47" width="1.27" height="7.51"/><rect class="cls-5" x="124.67" y="81.7" width="1.27" height="18.27"/><rect class="cls-6" x="134.51" y="99.98" width="1.27" height="11.17"/><rect class="cls-6" x="144.37" y="99.98" width="1.27" height="27.46"/><rect class="cls-6" x="154.2" y="99.97" width="1.27" height="29.5"/><rect class="cls-6" x="164.06" y="99.98" width="1.27" height="28.56"/><rect class="cls-6" x="173.9" y="99.98" width="1.27" height="30.07"/><rect class="cls-6" x="183.75" y="99.98" width="1.27" height="18.14"/><rect class="cls-6" x="193.59" y="99.98" width="1.27" height="21.6"/><rect class="cls-6" x="203.43" y="99.98" width="1.27" height="1.18"/><rect class="cls-5" x="213.28" y="86.19" width="1.27" height="13.79"/><rect class="cls-5" x="223.12" y="90.62" width="1.27" height="9.36"/><rect class="cls-5" x="232.96" y="96.04" width="1.27" height="3.94"/><rect class="cls-6" x="242.81" y="99.98" width="1.27" height="1.47"/><rect class="cls-5" x="252.65" y="95.12" width="1.27" height="4.86"/><rect class="cls-5" x="262.49" y="97.69" width="1.27" height="2.29"/><rect class="cls-6" x="272.34" y="99.98" width="1.27" height="0.89"/><rect class="cls-5" x="282.18" y="93.41" width="1.27" height="6.57"/><rect class="cls-6" x="292.04" y="99.98" width="1.27" height="3.82"/><rect class="cls-6" x="301.87" y="99.97" width="1.27" height="6.48"/><rect class="cls-5" x="311.73" y="98.44" width="1.27" height="1.54"/><rect class="cls-6" x="321.56" y="99.98" width="1.27" height="5.61"/><rect class="cls-6" x="331.42" y="99.98" width="1.27" height="9.64"/><rect class="cls-6" x="341.26" y="99.98" width="1.27" height="7.52"/><rect class="cls-6" x="351.09" y="99.97" width="1.27" height="12.62"/><rect class="cls-6" x="360.95" y="99.98" width="1.27" height="2.71"/><rect class="cls-6" x="370.79" y="99.98" width="1.27" height="5.1"/><rect class="cls-6" x="380.64" y="99.98" width="1.27" height="12.07"/><rect class="cls-6" x="390.48" y="99.98" width="1.27" height="18.91"/><rect class="cls-6" x="400.33" y="99.98" width="1.27" height="3.24"/><rect class="cls-6" x="410.17" y="99.97" width="1.27" height="5.94"/><rect class="cls-6" x="420.02" y="99.98" width="1.27" height="2.97"/><rect class="cls-5" x="429.86" y="97.35" width="1.27" height="2.62"/><rect class="cls-6" x="439.71" y="99.97" width="1.27" height="5.86"/><rect class="cls-6" x="449.55" y="99.98" width="1.27" height="9.82"/><rect class="cls-6" x="459.39" y="99.97" width="1.27" height="9.15"/><rect class="cls-6" x="469.24" y="99.97" width="1.27" height="12.37"/><rect class="cls-6" x="479.08" y="99.97" width="1.27" height="7.61"/><rect class="cls-6" x="488.93" y="99.97" width="1.27" height="28.82"/><rect class="cls-6" x="498.77" y="99.97" width="1.27" height="12.68"/><rect class="cls-6" x="508.61" y="99.98" width="1.27" height="18.42"/><rect class="cls-5" x="518.45" y="96.67" width="1.27" height="3.3"/><rect class="cls-5" x="528.31" y="99.92" width="1.27" height="0.05"/><rect class="cls-5" x="538.14" y="96.51" width="1.27" height="3.47"/><rect class="cls-5" x="106.4" y="89.72" width="1.27" height="10.26"/><rect class="cls-5" x="116.23" y="91.31" width="1.27" height="8.66"/><rect class="cls-5" x="126.09" y="83.81" width="1.27" height="16.16"/><rect class="cls-6" x="135.92" y="99.98" width="1.27" height="18.39"/><rect class="cls-6" x="145.76" y="99.97" width="1.27" height="27.62"/><rect class="cls-6" x="155.62" y="99.97" width="1.27" height="29.75"/><rect class="cls-6" x="165.45" y="99.98" width="1.27" height="29.95"/><rect class="cls-6" x="175.31" y="99.97" width="1.27" height="28.76"/><rect class="cls-6" x="185.15" y="99.97" width="1.27" height="17.9"/><rect class="cls-6" x="195" y="99.98" width="1.27" height="21.96"/><rect class="cls-5" x="204.84" y="97.16" width="1.27" height="2.82"/><rect class="cls-5" x="214.68" y="87.83" width="1.27" height="12.15"/><rect class="cls-5" x="224.53" y="90.88" width="1.27" height="9.1"/><rect class="cls-5" x="234.37" y="98.48" width="1.27" height="1.5"/><rect class="cls-6" x="244.21" y="99.97" width="1.27" height="0.86"/><rect class="cls-5" x="254.06" y="96.19" width="1.27" height="3.79"/><rect class="cls-5" x="263.9" y="98.19" width="1.27" height="1.79"/><rect class="cls-6" x="273.74" y="99.98" width="1.27" height="1.43"/><rect class="cls-5" x="283.59" y="94.96" width="1.27" height="5.02"/><rect class="cls-6" x="293.43" y="99.97" width="1.27" height="4.19"/><rect class="cls-6" x="303.29" y="99.98" width="1.27" height="6.29"/><rect class="cls-6" x="313.12" y="99.97" width="1.27" height="0.01"/><rect class="cls-6" x="322.98" y="99.98" width="1.27" height="6.34"/><rect class="cls-6" x="332.81" y="99.96" width="1.27" height="11.27"/><rect class="cls-6" x="342.67" y="99.98" width="1.27" height="9.22"/><rect class="cls-6" x="352.51" y="99.96" width="1.27" height="11.59"/><rect class="cls-6" x="362.36" y="99.96" width="1.27" height="3.16"/><rect class="cls-6" x="372.2" y="99.98" width="1.27" height="5.14"/><rect class="cls-6" x="382.04" y="99.97" width="1.27" height="14.55"/><rect class="cls-6" x="391.89" y="99.97" width="1.27" height="17.4"/><rect class="cls-6" x="401.73" y="99.98" width="1.27" height="3.95"/><rect class="cls-6" x="411.58" y="99.97" width="1.27" height="6.87"/><rect class="cls-6" x="421.42" y="99.97" width="1.27" height="4.08"/><rect class="cls-5" x="431.27" y="97.64" width="1.27" height="2.34"/><rect class="cls-6" x="441.11" y="99.97" width="1.27" height="4.55"/><rect class="cls-6" x="450.96" y="99.97" width="1.27" height="11.8"/><rect class="cls-6" x="460.8" y="99.98" width="1.27" height="10.23"/><rect class="cls-6" x="470.64" y="99.97" width="1.27" height="12.44"/><rect class="cls-6" x="480.49" y="99.97" width="1.27" height="8.31"/><rect class="cls-6" x="490.33" y="99.98" width="1.27" height="32.93"/><rect class="cls-6" x="500.18" y="99.97" width="1.27" height="10.46"/><rect class="cls-6" x="510.02" y="99.98" width="1.27" height="20.45"/><rect class="cls-5" x="519.87" y="94.4" width="1.27" height="5.58"/><rect class="cls-6" x="529.7" y="99.97" width="1.27" height="0.16"/><rect class="cls-5" x="539.56" y="96.44" width="1.27" height="3.54"/><rect class="cls-5" x="107.8" y="89.52" width="1.27" height="10.46"/><rect class="cls-5" x="117.65" y="88.48" width="1.27" height="11.49"/><rect class="cls-5" x="127.48" y="84.7" width="1.27" height="15.27"/><rect class="cls-6" x="137.34" y="99.98" width="1.27" height="24.72"/><rect class="cls-6" x="147.17" y="99.97" width="1.27" height="25.94"/><rect class="cls-6" x="157.03" y="99.97" width="1.27" height="27.58"/><rect class="cls-6" x="166.87" y="99.98" width="1.27" height="34.63"/><rect class="cls-6" x="176.7" y="99.98" width="1.27" height="26.78"/><rect class="cls-6" x="186.56" y="99.98" width="1.27" height="17.66"/><rect class="cls-6" x="196.4" y="99.97" width="1.27" height="19.94"/><rect class="cls-5" x="206.25" y="93.17" width="1.27" height="6.81"/><rect class="cls-5" x="216.09" y="88.95" width="1.27" height="11.02"/><rect class="cls-5" x="225.93" y="91.38" width="1.27" height="8.6"/><rect class="cls-5" x="235.78" y="99.74" width="1.27" height="0.24"/><rect class="cls-5" x="245.62" y="99.39" width="1.27" height="0.59"/><rect class="cls-5" x="255.46" y="96.13" width="1.27" height="3.85"/><rect class="cls-5" x="265.31" y="97.99" width="1.27" height="1.99"/><rect class="cls-6" x="275.15" y="99.98" width="1.27" height="1.6"/><rect class="cls-5" x="285.01" y="94.35" width="1.27" height="5.62"/><rect class="cls-6" x="294.84" y="99.97" width="1.27" height="5.3"/><rect class="cls-6" x="304.68" y="99.97" width="1.27" height="5.56"/><rect class="cls-6" x="314.54" y="99.98" width="1.27" height="0.78"/><rect class="cls-6" x="324.37" y="99.98" width="1.27" height="6.6"/><rect class="cls-6" x="334.23" y="99.98" width="1.27" height="11.97"/><rect class="cls-6" x="344.06" y="99.98" width="1.27" height="11.25"/><rect class="cls-6" x="353.92" y="99.98" width="1.27" height="8.27"/><rect class="cls-6" x="363.76" y="99.97" width="1.27" height="3.28"/><rect class="cls-6" x="373.61" y="99.97" width="1.27" height="5.44"/><rect class="cls-6" x="383.45" y="99.98" width="1.27" height="16.11"/><rect class="cls-6" x="393.3" y="99.98" width="1.27" height="14.85"/><rect class="cls-6" x="403.14" y="99.97" width="1.27" height="4.01"/><rect class="cls-6" x="412.98" y="99.98" width="1.27" height="6.42"/><rect class="cls-6" x="422.83" y="99.98" width="1.27" height="5.09"/><rect class="cls-5" x="432.67" y="97.95" width="1.27" height="2.03"/><rect class="cls-6" x="442.52" y="99.97" width="1.27" height="4.69"/><rect class="cls-6" x="452.36" y="99.96" width="1.27" height="11.77"/><rect class="cls-6" x="462.21" y="99.97" width="1.27" height="9.3"/><rect class="cls-6" x="472.05" y="99.98" width="1.27" height="11.6"/><rect class="cls-6" x="481.89" y="99.98" width="1.27" height="13.16"/><rect class="cls-6" x="491.74" y="99.97" width="1.27" height="31.15"/><rect class="cls-6" x="501.58" y="99.97" width="1.27" height="7.55"/><rect class="cls-6" x="511.43" y="99.97" width="1.27" height="18.63"/><rect class="cls-5" x="521.27" y="95.81" width="1.27" height="4.16"/><rect class="cls-5" x="531.12" y="99.17" width="1.27" height="0.81"/><rect class="cls-5" x="540.95" y="95.56" width="1.27" height="4.42"/><rect class="cls-5" x="109.2" y="87.54" width="1.27" height="12.44"/><rect class="cls-5" x="119.05" y="87.67" width="1.27" height="12.31"/><rect class="cls-5" x="128.9" y="83.86" width="1.27" height="16.12"/><rect class="cls-6" x="138.73" y="99.98" width="1.27" height="28.82"/><rect class="cls-6" x="148.59" y="99.98" width="1.27" height="22.93"/><rect class="cls-6" x="158.42" y="99.97" width="1.27" height="30.12"/><rect class="cls-6" x="168.28" y="99.98" width="1.27" height="34.14"/><rect class="cls-6" x="178.12" y="99.97" width="1.27" height="19.87"/><rect class="cls-6" x="187.96" y="99.98" width="1.27" height="23"/><rect class="cls-6" x="197.81" y="99.97" width="1.27" height="16.08"/><rect class="cls-5" x="207.65" y="91.12" width="1.27" height="8.86"/><rect class="cls-5" x="217.5" y="90.55" width="1.27" height="9.43"/><rect class="cls-5" x="227.34" y="88.63" width="1.27" height="11.35"/><rect class="cls-6" x="237.18" y="99.97" width="1.27" height="2.88"/><rect class="cls-5" x="247.03" y="97.15" width="1.27" height="2.83"/><rect class="cls-5" x="256.87" y="95.29" width="1.27" height="4.69"/><rect class="cls-5" x="266.71" y="99.01" width="1.27" height="0.97"/><rect class="cls-5" x="276.56" y="98.39" width="1.27" height="1.59"/><rect class="cls-5" x="286.4" y="96.94" width="1.27" height="3.04"/><rect class="cls-6" x="296.26" y="99.98" width="1.27" height="4.5"/><rect class="cls-6" x="306.09" y="99.98" width="1.27" height="4.59"/><rect class="cls-6" x="315.95" y="99.98" width="1.27" height="0.36"/><rect class="cls-6" x="325.79" y="99.98" width="1.27" height="6.06"/><rect class="cls-6" x="335.62" y="99.98" width="1.27" height="12.2"/><rect class="cls-6" x="345.48" y="99.98" width="1.27" height="12.59"/><rect class="cls-6" x="355.31" y="99.97" width="1.27" height="5.67"/><rect class="cls-6" x="365.17" y="99.98" width="1.27" height="2.71"/><rect class="cls-6" x="375.01" y="99.97" width="1.27" height="5.8"/><rect class="cls-6" x="384.86" y="99.98" width="1.27" height="19.16"/><rect class="cls-6" x="394.7" y="99.97" width="1.27" height="8.3"/><rect class="cls-6" x="404.55" y="99.98" width="1.27" height="5.36"/><rect class="cls-6" x="414.39" y="99.98" width="1.27" height="6.18"/><rect class="cls-6" x="424.24" y="99.97" width="1.27" height="3.42"/><rect class="cls-5" x="434.08" y="98.97" width="1.27" height="1.01"/><rect class="cls-6" x="443.92" y="99.97" width="1.27" height="4.55"/><rect class="cls-6" x="453.77" y="99.98" width="1.27" height="11.07"/><rect class="cls-6" x="463.61" y="99.97" width="1.27" height="10.44"/><rect class="cls-6" x="473.46" y="99.98" width="1.27" height="9.59"/><rect class="cls-6" x="483.3" y="99.97" width="1.27" height="16.05"/><rect class="cls-6" x="493.14" y="99.97" width="1.27" height="26.58"/><rect class="cls-6" x="502.99" y="99.98" width="1.27" height="6.74"/><rect class="cls-6" x="512.83" y="99.98" width="1.27" height="17.35"/><rect class="cls-5" x="522.68" y="95.33" width="1.27" height="4.65"/><rect class="cls-5" x="532.52" y="98.12" width="1.27" height="1.86"/><rect class="cls-5" x="542.37" y="95.01" width="1.27" height="4.97"/><rect class="cls-5" x="100.77" y="77.81" width="1.27" height="22.17"/><rect class="cls-5" x="110.62" y="88.99" width="1.27" height="10.99"/><rect class="cls-5" x="120.45" y="82.5" width="1.27" height="17.48"/><rect class="cls-5" x="130.29" y="90.45" width="1.27" height="9.52"/><rect class="cls-6" x="140.15" y="99.98" width="1.27" height="25.88"/><rect class="cls-6" x="149.98" y="99.98" width="1.27" height="24.56"/><rect class="cls-6" x="159.84" y="99.98" width="1.27" height="31.25"/><rect class="cls-6" x="169.67" y="99.98" width="1.27" height="32.88"/><rect class="cls-6" x="179.53" y="99.98" width="1.27" height="17.17"/><rect class="cls-6" x="189.37" y="99.98" width="1.27" height="22.06"/><rect class="cls-6" x="199.21" y="99.97" width="1.27" height="14.69"/><rect class="cls-5" x="209.06" y="88.65" width="1.27" height="11.33"/><rect class="cls-5" x="218.9" y="91.04" width="1.27" height="8.94"/><rect class="cls-5" x="228.75" y="89.35" width="1.27" height="10.63"/><rect class="cls-6" x="238.59" y="99.98" width="1.27" height="1.77"/><rect class="cls-5" x="248.43" y="95.17" width="1.27" height="4.81"/><rect class="cls-5" x="258.27" y="94.56" width="1.27" height="5.41"/><rect class="cls-5" x="268.12" y="99.52" width="1.27" height="0.46"/><rect class="cls-5" x="277.96" y="96.49" width="1.27" height="3.48"/><rect class="cls-6" x="287.81" y="99.97" width="1.27" height="0.44"/><rect class="cls-6" x="297.65" y="99.98" width="1.27" height="2.57"/><rect class="cls-6" x="307.51" y="99.97" width="1.27" height="2.43"/><rect class="cls-6" x="317.34" y="99.98" width="1.27" height="0.11"/><rect class="cls-6" x="327.2" y="99.97" width="1.27" height="6.58"/><rect class="cls-6" x="337.04" y="99.98" width="1.27" height="9.64"/><rect class="cls-6" x="346.89" y="99.97" width="1.27" height="13.49"/><rect class="cls-6" x="356.73" y="99.98" width="1.27" height="4.75"/><rect class="cls-6" x="366.56" y="99.98" width="1.27" height="1.84"/><rect class="cls-6" x="376.42" y="99.97" width="1.27" height="7.3"/><rect class="cls-6" x="386.26" y="99.97" width="1.27" height="18.8"/><rect class="cls-6" x="396.11" y="99.97" width="1.27" height="5.01"/><rect class="cls-6" x="405.95" y="99.98" width="1.27" height="6.1"/><rect class="cls-6" x="415.8" y="99.97" width="1.27" height="5.48"/><rect class="cls-6" x="425.64" y="99.97" width="1.27" height="1.94"/><rect class="cls-5" x="435.49" y="99.71" width="1.27" height="0.27"/><rect class="cls-6" x="445.33" y="99.97" width="1.27" height="3.57"/><rect class="cls-6" x="455.18" y="99.97" width="1.27" height="10.54"/><rect class="cls-6" x="465.02" y="99.96" width="1.27" height="11.02"/><rect class="cls-6" x="474.86" y="99.97" width="1.27" height="6.51"/><rect class="cls-6" x="484.71" y="99.98" width="1.27" height="19.31"/><rect class="cls-6" x="494.55" y="99.96" width="1.27" height="23.2"/><rect class="cls-6" x="504.39" y="99.97" width="1.27" height="5.69"/><rect class="cls-6" x="514.24" y="99.98" width="1.27" height="15.02"/><rect class="cls-5" x="524.08" y="95.65" width="1.27" height="4.33"/><rect class="cls-5" x="533.93" y="96.74" width="1.27" height="3.24"/><rect class="cls-5" x="543.77" y="94.45" width="1.27" height="5.53"/><rect class="cls-5" x="102.17" y="74.22" width="1.27" height="25.76"/><rect class="cls-5" x="112.02" y="94.31" width="1.27" height="5.67"/><rect class="cls-5" x="121.87" y="81.47" width="1.27" height="18.51"/><rect class="cls-5" x="131.7" y="97.59" width="1.27" height="2.39"/><rect class="cls-6" x="141.56" y="99.97" width="1.27" height="28.39"/><rect class="cls-6" x="151.4" y="99.97" width="1.27" height="26.37"/><rect class="cls-6" x="161.23" y="99.97" width="1.27" height="30.94"/><rect class="cls-6" x="171.09" y="99.98" width="1.27" height="32.23"/><rect class="cls-6" x="180.92" y="99.97" width="1.27" height="19.69"/><rect class="cls-6" x="190.78" y="99.98" width="1.27" height="22.06"/><rect class="cls-6" x="200.62" y="99.97" width="1.27" height="11.3"/><rect class="cls-5" x="210.46" y="88.19" width="1.27" height="11.79"/><rect class="cls-5" x="220.31" y="93.04" width="1.27" height="6.94"/><rect class="cls-5" x="230.15" y="93.03" width="1.27" height="6.95"/><rect class="cls-6" x="240" y="99.97" width="1.27" height="1.42"/><rect class="cls-5" x="249.84" y="94.71" width="1.27" height="5.27"/><rect class="cls-5" x="259.68" y="96.41" width="1.27" height="3.57"/><rect class="cls-6" x="269.54" y="99.98" width="1.27" height="1.84"/><rect class="cls-5" x="279.37" y="99.44" width="1.27" height="0.54"/><rect class="cls-6" x="289.21" y="99.97" width="1.27" height="0.15"/><rect class="cls-6" x="299.06" y="99.98" width="1.27" height="3.81"/><rect class="cls-5" x="308.9" y="99.9" width="1.27" height="0.08"/><rect class="cls-6" x="318.76" y="99.98" width="1.27" height="4.61"/><rect class="cls-6" x="328.59" y="99.97" width="1.27" height="8.61"/><rect class="cls-6" x="338.45" y="99.98" width="1.27" height="9.5"/><rect class="cls-6" x="348.29" y="99.98" width="1.27" height="15.24"/><rect class="cls-6" x="358.14" y="99.98" width="1.27" height="3.57"/><rect class="cls-6" x="367.98" y="99.98" width="1.27" height="4.92"/><rect class="cls-6" x="377.83" y="99.98" width="1.27" height="8.86"/><rect class="cls-6" x="387.67" y="99.97" width="1.27" height="19.07"/><rect class="cls-6" x="397.51" y="99.98" width="1.27" height="5.06"/><rect class="cls-6" x="407.36" y="99.98" width="1.27" height="7.31"/><rect class="cls-6" x="417.2" y="99.97" width="1.27" height="7.52"/><rect class="cls-5" x="427.05" y="99.88" width="1.27" height="0.1"/><rect class="cls-6" x="436.89" y="99.98" width="1.27" height="2.2"/><rect class="cls-6" x="446.74" y="99.98" width="1.27" height="6.1"/><rect class="cls-6" x="456.58" y="99.97" width="1.27" height="10.88"/><rect class="cls-6" x="466.43" y="99.98" width="1.27" height="13.7"/><rect class="cls-6" x="476.27" y="99.98" width="1.27" height="6.84"/><rect class="cls-6" x="486.11" y="99.98" width="1.27" height="22.6"/><rect class="cls-6" x="495.96" y="99.98" width="1.27" height="19.31"/><rect class="cls-6" x="505.8" y="99.98" width="1.27" height="6.93"/><rect class="cls-6" x="515.64" y="99.97" width="1.27" height="14.63"/><rect class="cls-5" x="525.49" y="98.04" width="1.27" height="1.94"/><rect class="cls-5" x="535.33" y="97.67" width="1.27" height="2.3"/><rect class="cls-5" x="545.18" y="94.64" width="1.27" height="5.34"/><rect class="cls-5" x="103.58" y="77.05" width="1.27" height="22.93"/><rect class="cls-5" x="113.42" y="95.38" width="1.27" height="4.6"/><rect class="cls-5" x="123.27" y="79.79" width="1.27" height="20.19"/><rect class="cls-6" x="133.12" y="99.98" width="1.27" height="4.46"/><rect class="cls-6" x="142.95" y="99.98" width="1.27" height="28.7"/><rect class="cls-6" x="152.81" y="99.97" width="1.27" height="28.12"/><rect class="cls-6" x="162.65" y="99.98" width="1.27" height="30.07"/><rect class="cls-6" x="172.5" y="99.96" width="1.27" height="31.2"/><rect class="cls-6" x="182.34" y="99.98" width="1.27" height="18.67"/><rect class="cls-6" x="192.17" y="99.97" width="1.27" height="21.83"/><rect class="cls-6" x="202.03" y="99.98" width="1.27" height="6.53"/><rect class="cls-5" x="211.87" y="87.47" width="1.27" height="12.51"/><rect class="cls-5" x="221.71" y="92.67" width="1.27" height="7.3"/><rect class="cls-5" x="231.56" y="93.95" width="1.27" height="6.03"/><rect class="cls-6" x="241.4" y="99.98" width="1.27" height="1.54"/><rect class="cls-5" x="251.25" y="94.58" width="1.27" height="5.4"/><rect class="cls-5" x="261.09" y="97.02" width="1.27" height="2.96"/><rect class="cls-6" x="270.93" y="99.98" width="1.27" height="2.42"/><rect class="cls-5" x="280.79" y="93.16" width="1.27" height="6.82"/><rect class="cls-6" x="290.62" y="99.97" width="1.27" height="8.08"/><rect class="cls-6" x="300.48" y="99.98" width="1.27" height="1.85"/><rect class="cls-5" x="310.31" y="99.77" width="1.27" height="0.21"/><rect class="cls-6" x="320.15" y="99.98" width="1.27" height="4.97"/><rect class="cls-6" x="330.01" y="99.97" width="1.27" height="9.12"/><rect class="cls-6" x="339.84" y="99.97" width="1.27" height="8.8"/><rect class="cls-6" x="349.7" y="99.98" width="1.27" height="14.64"/><rect class="cls-6" x="359.54" y="99.98" width="1.27" height="1.7"/><rect class="cls-6" x="369.39" y="99.97" width="1.27" height="5.37"/><rect class="cls-6" x="379.23" y="99.97" width="1.27" height="11.29"/><rect class="cls-6" x="389.08" y="99.98" width="1.27" height="19.22"/><rect class="cls-6" x="398.92" y="99.98" width="1.27" height="4.61"/><rect class="cls-6" x="408.77" y="99.97" width="1.27" height="6.26"/><rect class="cls-6" x="418.61" y="99.97" width="1.27" height="7.65"/><rect class="cls-5" x="428.45" y="94.12" width="1.27" height="5.86"/><rect class="cls-6" x="438.3" y="99.98" width="1.27" height="5.29"/><rect class="cls-6" x="448.14" y="99.96" width="1.27" height="9.09"/><rect class="cls-6" x="457.99" y="99.97" width="1.27" height="10.29"/><rect class="cls-6" x="467.83" y="99.97" width="1.27" height="13.72"/><rect class="cls-6" x="477.68" y="99.97" width="1.27" height="7.39"/><rect class="cls-6" x="487.52" y="99.97" width="1.27" height="25.87"/><rect class="cls-6" x="497.36" y="99.97" width="1.27" height="14.57"/><rect class="cls-6" x="507.21" y="99.98" width="1.27" height="11.99"/><rect class="cls-6" x="517.06" y="99.97" width="1.27" height="7.83"/><rect class="cls-5" x="526.89" y="99.19" width="1.27" height="0.79"/><rect class="cls-5" x="536.75" y="96.98" width="1.27" height="3"/><rect class="cls-5" x="546.58" y="93.02" width="1.27" height="6.96"/><rect class="cls-7" x="126.72" y="6.01" width="54.85" height="187.92"/><rect class="cls-8" x="99.99" y="99.98" width="1.41" height="93.96"/><rect class="cls-8" x="132.34" y="99.98" width="12.66" height="93.96"/><rect class="cls-8" x="232.2" y="99.98" width="2.81" height="93.96"/><rect class="cls-8" x="270.17" y="99.98" width="5.63" height="93.96"/><rect class="cls-8" x="347.52" y="99.98" width="2.81" height="93.96"/><rect class="cls-8" x="485.33" y="99.98" width="9.84" height="93.96"/><line class="cls-9" x1="112.65" y1="99.98" x2="112.65" y2="19.43"/><line class="cls-9" x1="126.72" y1="99.98" x2="126.72" y2="19.43"/><line class="cls-9" x1="133.75" y1="99.98" x2="133.75" y2="19.43"/><line class="cls-9" x1="181.56" y1="99.98" x2="181.56" y2="19.43"/><text class="cls-10" transform="translate(96.1 191.24)">a</text><text class="cls-10" transform="translate(134.08 191.24)">b</text><text class="cls-10" transform="translate(230.1 191.24)">c</text><text class="cls-10" transform="translate(269.08 191.24)">d</text><text class="cls-10" transform="translate(345.03 191.24)">e</text><text class="cls-10" transform="translate(489.02 191.24)">f</text><text class="cls-11" transform="translate(108.31 18.74)">A</text><text class="cls-11" transform="translate(120.97 18.74)">B</text><text class="cls-11" transform="translate(130.45 18.74)">C</text><text class="cls-11" transform="translate(176.87 18.74)">D</text><rect class="cls-12" x="77.56" y="6.01" width="493.49" height="187.92"/></g><text class="cls-13" transform="translate(39.03 171.75)">−50%</text><text class="cls-13" transform="translate(65.41 104.64)">0</text><text class="cls-13" transform="translate(39.03 37.53)">+50%</text><line class="cls-14" x1="74.83" y1="167.08" x2="77.56" y2="167.08"/><line class="cls-14" x1="74.83" y1="99.98" x2="77.56" y2="99.98"/><line class="cls-14" x1="74.83" y1="32.86" x2="77.56" y2="32.86"/><line class="cls-14" x1="99.99" y1="196.66" x2="99.99" y2="193.93"/><line class="cls-14" x1="184.37" y1="196.66" x2="184.37" y2="193.93"/><line class="cls-14" x1="270.17" y1="196.66" x2="270.17" y2="193.93"/><line class="cls-14" x1="355.96" y1="196.66" x2="355.96" y2="193.93"/><line class="cls-14" x1="443.14" y1="196.66" x2="443.14" y2="193.93"/><line class="cls-14" x1="528.94" y1="196.66" x2="528.94" y2="193.93"/><text class="cls-13" transform="translate(89.64 208.2)"><tspan class="cls-15">J</tspan><tspan x="6.24" y="0">an</tspan></text><text class="cls-13" transform="translate(173.18 208.2)">Mar</text><text class="cls-13" transform="translate(258.08 208.2)">M<tspan class="cls-16" x="10.83" y="0">a</tspan><tspan x="17.67" y="0">y</tspan></text><text class="cls-17" transform="translate(347.78 208.2)">J<tspan class="cls-18" x="6.24" y="0">ul</tspan></text><text class="cls-13" transform="translate(431.58 208.2)">Sep</text><text class="cls-13" transform="translate(517.48 208.2)">N<tspan class="cls-19" x="9.39" y="0">o</tspan><tspan x="16.42" y="0">v</tspan></text><text class="cls-20" transform="translate(16.78 164.63) rotate(-90)"><tspan class="cls-21">P</tspan><tspan x="9.25" y="0">ercentage change</tspan></text><text class="cls-20" transform="translate(32.98 160.33) rotate(-90)">in <tspan class="cls-22" x="15.84" y="0">n</tspan><tspan x="24.03" y="0">umber of visits</tspan></text></svg>