<svg id="图层_1" data-name="图层 1" xmlns="http://www.w3.org/2000/svg" xmlns:xlink="http://www.w3.org/1999/xlink" viewBox="0 0 577.07 217.07"><defs><style>.cls-1,.cls-12,.cls-15,.cls-17,.cls-3,.cls-5,.cls-6,.cls-7,.cls-8,.cls-9{fill:none;}.cls-2{fill:#fff;}.cls-3{stroke:#fff;}.cls-15,.cls-3{stroke-linecap:round;}.cls-12,.cls-15,.cls-17,.cls-3,.cls-5,.cls-6,.cls-7,.cls-8,.cls-9{stroke-linejoin:round;stroke-width:1.07px;}.cls-4{clip-path:url(#clip-path);}.cls-5,.cls-6{stroke:#5970bf;}.cls-5,.cls-7,.cls-9{opacity:0.3;}.cls-7,.cls-8{stroke:#9163af;}.cls-9{stroke:#000;}.cls-10{fill:#bebebe;opacity:0.5;}.cls-11{fill:#5ca076;opacity:0.4;}.cls-12{stroke:#ff4500;stroke-dasharray:4.27 4.27;}.cls-13{font-size:14px;fill:#006400;}.cls-13,.cls-14,.cls-16,.cls-20,.cls-23{font-family:Helvetica;}.cls-14,.cls-16,.cls-20{font-size:13px;}.cls-14{fill:#ff4500;}.cls-15,.cls-17{stroke:#333;}.cls-18,.cls-20{letter-spacing:-0.02em;}.cls-19{letter-spacing:-0.03em;}.cls-21{letter-spacing:0em;}.cls-22{letter-spacing:-0.02em;}.cls-23{font-size:15px;}.cls-24{letter-spacing:-0.05em;}.cls-25{letter-spacing:-0.01em;}</style><clipPath id="clip-path" transform="translate(0.54 0.54)"><rect class="cls-1" x="77.03" y="5.48" width="493.49" height="187.92"/></clipPath></defs><rect class="cls-2" x="0.54" y="0.54" width="576" height="216"/><rect class="cls-2" x="0.54" y="0.54" width="576" height="216"/><rect class="cls-3" x="0.54" y="0.54" width="576" height="216"/><g class="cls-4"><rect class="cls-2" x="77.56" y="6.01" width="493.49" height="187.92"/><polyline class="cls-5" points="101.39 101.7 102.81 114.63 104.22 113.33 105.61 95.17 107.03 92.23 108.44 101.16 109.83 106.81 111.25 106.72 112.64 111.36 114.06 105.3 115.47 109.91 116.86 120.48 118.28 115.98 119.69 97.44 121.08 100.58 122.5 100.94 123.91 114.28 125.31 122.53 126.72 117.84 128.12 122.81 129.53 125.33 130.94 126.13 132.34 90.66 133.75 109.78 135.16 140.74 136.56 98.33 137.97 114.58 139.38 102.91 140.78 102.14 142.19 96.53 143.59 103.83 145 80.75 146.41 90.36 147.81 86.86 149.22 85.08 150.63 83.81 152.03 60.7 153.44 72.16 154.84 95.61 156.25 79.69 157.66 67.72 159.06 69.84 160.47 71.38 161.88 26.36 163.28 74.97 164.69 80.27 166.09 73.84 167.5 69.77 168.91 68.8 170.31 68.78 171.72 68.39 173.13 75.19 174.53 78.5 175.94 62.8 177.34 62.66 178.75 65.31 180.16 62.8 181.56 60.52 182.97 22.55 184.38 40.97 185.78 50.03 187.19 43.48 188.59 43.69 190 42.88 191.41 46.78 192.81 52.88 194.22 45.33 195.63 49.52 197.03 41.47 198.44 44.3 199.84 35.53 201.25 34.73 202.66 32.27 204.06 31.46 205.47 26.11 206.88 21.5 208.28 12.68 209.69 15.44 211.09 15.38 212.5 29.02 213.91 28.55 215.31 24.89 216.72 28.54 218.13 17.48 219.53 17.39 220.94 28.71 222.34 38.84 223.75 38.15 225.16 28.59 226.56 26.05 227.97 12.48 229.38 40.41 230.78 47.44 232.19 39.8 233.59 60.98 235 33.23 236.41 46.66 237.81 42.83 239.22 54.56 240.63 53.78 242.03 66.34 243.44 64.06 244.84 60.23 246.25 55.84 247.66 49.7 249.06 49.69 250.47 55.52 251.88 68.25 253.28 55.31 254.69 53.16 256.1 54.7 257.5 55.37 258.92 51.2 260.31 52.37 261.73 60.2 263.13 74.02 264.54 57.34 265.94 55.23 267.36 64.17 268.75 60.13 270.17 43.34 271.56 70.92 272.98 73.56 274.38 49.81 275.79 40.55 277.19 56.76 278.61 58.52 280 59.48 281.42 77.81 282.82 60.63 284.23 83.3 285.63 78.31 287.04 68.36 288.44 67.11 289.86 67.78 291.25 83.7 292.67 97.27 294.07 69.91 295.48 73.03 296.88 35.48 298.3 63.52 299.69 72.81 301.11 75.8 302.5 79.89 303.92 73.89 305.32 73.06 306.73 71.33 308.13 70.17 309.55 74.58 310.94 77.78 312.36 75.06 313.76 50.06 315.17 79.27 316.57 74.3 317.98 76.97 319.38 75.09 320.8 77.69 322.19 81.19 323.61 82.77 325.01 83.67 326.42 81.97 327.82 84.16 329.24 85.09 330.63 89.25 332.05 90.84 333.44 89.61 334.86 89.97 336.26 85.16 337.67 88.86 339.07 84.78 340.49 89.92 341.88 71.03 343.3 83.78 344.7 84.95 346.11 85.28 347.51 61.59 348.92 73.69 350.32 87.33 351.74 104.63 353.13 91.13 354.55 82.75 355.95 67.48 357.36 79.03 358.76 79.86 360.18 89.25 361.57 90 362.99 77.78 364.38 77.5 365.8 82.72 367.2 81.61 368.61 82.11 370.01 87.64 371.43 83.83 372.82 85.69 374.24 84.28 375.64 89.67 377.05 93.78 378.45 97.38 379.86 108.25 381.26 112.83 382.68 106.39 384.07 109.97 385.49 101.08 386.89 100.36 388.3 108.44 389.7 127.25 391.12 113.08 392.51 107.34 393.93 103.38 395.32 102.53 396.74 92.44 398.14 92.8 399.55 92.23 400.95 101.45 402.37 98.27 403.76 99.75 405.18 97.03 406.58 93.48 407.99 95.5 409.39 103.39 410.8 99.78 412.2 95.5 413.62 93.33 415.01 88.22 416.43 91.08 417.83 95.36 419.24 100.78 420.64 101.91 422.06 96.41 423.45 93.38 424.87 90.45 426.26 92.44 427.68 93.25 429.08 92.14 430.49 91.8 431.89 81.92 433.31 55.95 434.7 83.25 436.12 90.89 437.52 103.69 438.93 101.73 440.33 109.06 441.74 95.92 443.14 84.47 444.56 93.22 445.95 91.81 447.37 102.89 448.77 110.25 450.18 110.03 451.58 108.58 453 110.11 454.39 105.09 455.81 98.2 457.2 108.86 458.62 109.56 460.02 113.69 461.43 108.22 462.83 107.75 464.25 106.72 465.64 106.28 467.06 112.72 468.46 115.94 469.87 115.58 471.27 118.39 472.69 113.78 474.08 102.28 475.5 109.22 476.89 108.72 478.31 112.53 479.71 122.56 481.12 115.3 482.52 119.11 483.94 111.48 485.33 80.5 486.75 111.84 488.15 127.83 489.56 129.56 490.96 112.42 492.37 110.89 493.77 105.72 495.19 102.19 496.58 115.11 498 118.91 499.4 110.31 500.81 106.13 502.21 116.02 503.63 112.63 505.02 111.14 506.44 105.61 507.83 108.86 509.25 107 510.65 105.39 512.05 143.87 513.47 159.97 514.88 121.78 516.27 96.69 517.68 103.27 519.1 99.41 520.5 100.47 521.9 101.83 523.3 99.23 524.72 102.28 526.13 100.31 527.52 95.72 528.93 98.58 530.35 103.05 531.75 101.89 533.15 95.16 534.57 100.03 535.97 99.42 537.38 99.67 538.77 99.5 540.18 102.58 541.6 107.63 543 101.72 544.4 97.64 545.82 100.17 547.22 102.52 548.63 99.75"/><polyline class="cls-6" points="100 82.66 101.39 79.97 102.81 77.31 104.22 84.44 105.61 106.02 107.03 106.2 108.44 104.61 109.83 103.14 111.25 105.92 112.64 109.89 114.06 113.22 115.47 111.97 116.86 110.69 118.28 108.16 119.69 109.28 121.08 111.72 122.5 111.39 123.91 113.61 125.31 117.33 126.72 120.33 128.12 117.89 129.53 117 130.94 120.28 132.34 117.59 133.75 117.7 135.16 114.73 136.56 111.06 137.97 110.75 139.38 109.61 140.78 100.64 142.19 99.58 143.59 97.23 145 94.88 146.41 91.89 147.81 85.69 149.22 80.59 150.63 83.47 152.03 82.05 153.44 81.05 154.84 79.03 156.25 76.78 157.66 70.66 159.06 70.78 160.47 68.97 161.88 68.2 163.28 70.23 164.69 70.11 166.09 69.14 167.5 73.39 168.91 73.13 170.31 73.42 171.72 71.94 173.13 72.69 174.53 72.25 175.94 70.83 177.34 68.28 178.75 59.95 180.16 54.69 181.56 52.97 182.97 52.27 184.38 49.41 185.78 46.02 187.19 42.45 188.59 46.72 190 48.08 191.41 48.06 192.81 49.76 194.22 49.85 195.63 48.16 197.03 44.84 198.44 41.34 199.84 39.87 201.25 36.67 202.66 36.05 204.06 31.86 205.47 28.39 206.88 23.88 208.28 23 209.69 23.3 211.09 23.2 212.5 26.38 213.91 27.04 215.31 26.5 216.72 26.46 218.13 27.57 219.53 29.82 220.94 30.41 222.34 32.2 223.75 31.57 225.16 33.9 226.56 34.65 227.97 34.42 229.38 38.72 230.78 39.42 232.19 44.27 233.59 48.34 235 49.53 236.41 48.74 237.81 52.45 239.22 53.58 240.63 57.4 242.03 60.51 243.44 61.44 244.84 60.13 246.25 58.8 247.66 58.77 249.06 58.02 250.47 57.09 251.88 58.8 253.28 59.58 254.69 59.12 256.1 57.1 257.5 55.55 258.92 59.13 260.31 59.77 261.73 61.67 263.13 62.87 264.54 63.41 265.94 60.65 267.36 61.95 268.75 62.51 270.17 61.52 271.56 61.34 272.98 60.37 274.38 59.48 275.79 60.13 277.19 60.84 278.61 59.44 280 64.16 281.42 71.08 282.82 72.64 284.23 73.17 285.63 72.86 287.04 73.45 288.44 79.78 289.86 77.97 291.25 78.91 292.67 74.53 294.07 73.44 295.48 72.69 296.88 71.19 298.3 69.03 299.69 69.64 301.11 71.39 302.5 76.17 303.92 76.47 305.32 75.3 306.73 75.31 308.13 75.11 309.55 71.86 310.94 74.41 312.36 74.81 313.76 75.13 315.17 73.77 316.57 73.45 317.98 75 319.38 79.59 320.8 81.81 322.19 82.86 323.61 83.25 325.01 83.25 326.42 84.73 327.82 86.78 329.24 87.78 330.63 90.19 332.05 90.63 333.44 90.72 334.86 89.38 336.26 89.22 337.67 86.63 339.07 85.86 340.49 86.75 341.88 86.78 343.3 82.55 344.7 79.67 346.11 78.98 347.51 84.81 348.92 85.89 350.32 87.14 351.74 84.78 353.13 86.56 354.55 86.08 355.95 86.09 357.36 84.33 358.76 82.53 360.18 83.41 361.57 85.45 362.99 85.23 364.38 84.2 365.8 83.67 367.2 83.25 368.61 84.41 370.01 86.89 371.43 87.83 372.82 88.92 374.24 89.69 375.64 92.58 377.05 97.63 378.45 100.56 379.86 105.44 381.26 106.98 382.68 107.39 384.07 107.75 385.49 110.42 386.89 110.91 388.3 111.08 389.7 111.47 391.12 111.69 392.51 110.16 393.93 106.89 395.32 101.31 396.74 99.97 398.14 98.75 399.55 99.69 400.95 98.97 402.37 98.59 403.76 97.75 405.18 99.19 406.58 99.42 407.99 99.08 409.39 99.63 410.8 98.47 412.2 97.63 413.62 96.38 415.01 95.72 416.43 96.56 417.83 96.72 419.24 98.17 420.64 98.48 422.06 98.16 423.45 96.64 424.87 95.06 426.26 93.98 427.68 92.02 429.08 88.42 430.49 87.48 431.89 86.72 433.31 86.81 434.7 88 436.12 91.23 437.52 93.23 438.93 98.59 440.33 99.94 441.74 99.55 443.14 98.22 444.56 99.28 445.95 99.91 447.37 101.7 448.77 106.58 450.18 108.19 451.58 108.56 453 108.25 454.39 107.92 455.81 108.94 457.2 108.94 458.62 109.92 460.02 110.16 461.43 110.78 462.83 110.19 464.25 110.94 465.64 111.67 467.06 113.13 468.46 115.22 469.87 114.64 471.27 114.58 472.69 112.95 474.08 112.22 475.5 113.75 476.89 113.36 478.31 115.34 479.71 116.58 481.12 112.28 482.52 111.61 483.94 113.72 485.33 115.25 486.75 114.89 488.15 115.03 489.56 114.27 490.96 116.72 492.37 116.11 493.77 114.53 495.19 111.94 496.58 111.11 498 113.11 499.4 114.03 500.81 114.78 502.21 112.41 503.63 110.66 505.02 110.58 506.44 110.52 507.83 115.59 509.25 121.92 510.65 122.92 512.05 120.7 513.47 119.64 514.88 118.86 516.27 118.22 517.68 113.72 519.1 105.64 520.5 102.53 521.9 101.84 523.3 100.44 524.72 100.8 526.13 101.19 527.52 102.61 528.93 102.08 530.35 101.28 531.75 99.95 533.15 100.31 534.57 100.94 535.97 100.92 537.38 103.09 538.77 103.98 540.18 103.17 541.6 102.08 543 102.28 544.4 102.78 545.82 102.83 547.22 103.47 548.63 102.83"/><polyline class="cls-7" points="101.39 87.38 102.81 113.75 104.22 113.67 105.61 101.59 107.03 80.86 108.44 82.53 109.83 88.69 111.25 93.16 112.64 99.84 114.06 103.33 115.47 105.22 116.86 96.02 118.28 87.97 119.69 77.47 121.08 85.14 122.5 89.34 123.91 111.16 125.31 108.56 126.72 82.63 128.12 79.13 129.53 93.56 130.94 119.06 132.34 144.74 133.75 168 135.16 184.18 136.56 161.47 137.97 161.28 139.38 159.69 140.78 164.15 142.19 171.65 143.59 182.96 145 174.72 146.41 167.21 147.81 164.59 149.22 165.25 150.63 170.66 152.03 169.35 153.44 176.53 154.84 181.72 156.25 168.47 157.66 167.79 159.06 166.59 160.47 169.72 161.88 161.28 163.28 184.16 164.69 183.22 166.09 165.54 167.5 163.69 168.91 163.24 170.31 162.84 171.72 170.41 173.13 174.53 174.53 173.72 175.94 150.34 177.34 146.35 178.75 146.78 180.16 150.97 181.56 155.93 182.97 152.38 184.38 160.06 185.78 148.81 187.19 142.72 188.59 145 190 145.91 191.41 155.1 192.81 160.84 194.22 159.21 195.63 147.22 197.03 135.03 198.44 136 199.84 136.59 201.25 137.19 202.66 132.94 204.06 122.61 205.47 107.39 206.88 98.05 208.28 94.55 209.69 99.89 211.09 103.73 212.5 115.69 213.91 106.72 215.31 88.39 216.72 83.02 218.13 84.11 219.53 96.83 220.94 111.25 222.34 124.47 223.75 120.06 225.16 96.36 226.56 90.97 227.97 83.92 229.38 105.19 230.78 114.52 232.19 130.07 233.59 113.56 235 81.06 236.41 93.34 237.81 93.88 239.22 109.67 240.63 117.89 242.03 132.88 243.44 111.69 244.84 100.09 246.25 94.64 247.66 92.59 249.06 99.11 250.47 113.17 251.88 125.14 253.28 113.67 254.69 95.2 256.1 96.52 257.5 97.19 258.92 102.08 260.31 107.58 261.73 114.3 263.13 122.17 264.54 96.39 265.94 87.25 267.36 95.94 268.75 91.47 270.17 64.72 271.56 89.33 272.98 87.7 274.38 49.52 275.79 55.37 277.19 87.05 278.61 99.09 280 111.88 281.42 129.79 282.82 117.36 284.23 115.5 285.63 102 287.04 99.69 288.44 105.91 289.86 110.39 291.25 126.94 292.67 132.62 294.07 103.81 295.48 102.33 296.88 74.64 298.3 103.73 299.69 115.28 301.11 118.27 302.5 116.45 303.92 106.33 305.32 100.02 306.73 98.36 308.13 100.42 309.55 110.63 310.94 122.06 312.36 113.39 313.76 81.73 315.17 100.58 316.57 102.59 317.98 104.56 319.38 109.83 320.8 117.06 322.19 115.17 323.61 105.13 325.01 103.69 326.42 104.69 327.82 107.36 329.24 111.86 330.63 120.64 332.05 124.2 333.44 111.94 334.86 110.86 336.26 109.25 337.67 118.19 339.07 121.69 340.49 128.31 341.88 117.8 343.3 109.28 344.7 106.86 346.11 101.97 347.51 74.64 348.92 81.08 350.32 117.86 351.74 137.41 353.13 111.25 354.55 101.56 355.95 95.22 357.36 108.31 358.76 113.58 360.18 123.22 361.57 119.19 362.99 98.88 364.38 92.97 365.8 99.73 367.2 103.75 368.61 109.28 370.01 118.78 371.43 112.61 372.82 99.56 374.24 91.09 375.64 95.53 377.05 101.94 378.45 110.27 379.86 120.84 381.26 119.47 382.68 107.03 384.07 103.98 385.49 102.03 386.89 106.94 388.3 117.03 389.7 132.01 391.12 118.36 392.51 106.83 393.93 100.66 395.32 102.7 396.74 99.81 398.14 103.25 399.55 105.94 400.95 108.08 402.37 98.31 403.76 98.39 405.18 97.03 406.58 101.06 407.99 106.31 409.39 111.5 410.8 105.53 412.2 91.36 413.62 89.7 415.01 93.13 416.43 96.39 417.83 101.03 419.24 110.89 420.64 111.03 422.06 98.36 423.45 92.88 424.87 88.81 426.26 96.52 427.68 100.25 429.08 100.94 430.49 103.88 431.89 86.5 433.31 50.94 434.7 80.81 436.12 96.11 437.52 111.31 438.93 113.48 440.33 117.69 441.74 99.8 443.14 89.34 444.56 97.81 445.95 97.22 447.37 113.25 448.77 117.83 450.18 117.81 451.58 112.55 453 109.48 454.39 110.39 455.81 109.25 457.2 119.08 458.62 118.53 460.02 119.67 461.43 111.92 462.83 110.02 464.25 108.75 465.64 111.83 467.06 117.83 468.46 122.53 469.87 118.61 471.27 118.08 472.69 113.02 474.08 108.03 475.5 112.61 476.89 118.08 478.31 124.25 479.71 136.31 481.12 116.83 482.52 110.3 483.94 92.27 485.33 40.17 486.75 65.31 488.15 90.03 489.56 93.14 490.96 48.84 492.37 51.13 493.77 60.9 495.19 80.08 496.58 124.5 498 138.53 499.4 122.7 500.81 112.33 502.21 118.47 503.63 124.94 505.02 127.14 506.44 127.5 507.83 126.39 509.25 122.41 510.65 114.75 512.05 153.59 513.47 169.75 514.88 133.21 516.27 112.14 517.68 116.5 519.1 111.17 520.5 110.11 521.9 107.56 523.3 108.92 524.72 117.08 526.13 118.11 527.52 110.06 528.93 105.95 530.35 109.25 531.75 112.47 533.15 110.17 534.57 117.25 535.97 120.19 537.38 119.3 538.77 113.56 540.18 113.28 541.6 118.61 543 115.8 544.4 113.73 545.82 120.52 547.22 124.34 548.63 117.53"/><polyline class="cls-8" points="100 73.88 101.39 70.42 102.81 68.98 104.22 76 105.61 100.14 107.03 100.56 108.44 99.39 109.83 96.05 111.25 96 112.64 98.78 114.06 100.44 115.47 99.06 116.86 97.7 118.28 97.03 119.69 96.78 121.08 96.69 122.5 95.77 123.91 95.72 125.31 97.66 126.72 101.63 128.12 110 129.53 118.31 130.94 130.78 132.34 141.56 133.75 152.22 135.16 160.25 136.56 165.79 137.97 169.88 139.38 171.71 140.78 169.78 142.19 170.9 143.59 171.76 145 172.43 146.41 173.1 147.81 173.13 149.22 171.31 150.63 172.22 152.03 172.75 153.44 173.59 154.84 173.75 156.25 173.49 157.66 172.72 159.06 173.31 160.47 173.28 161.88 173.25 163.28 173.21 164.69 172.79 166.09 171.76 167.5 173.38 168.91 171.01 170.31 169.07 171.72 167.5 173.13 165.88 174.53 163.88 175.94 162.19 177.34 160.6 178.75 155.94 180.16 153.22 181.56 153.5 182.97 153.65 184.38 153.41 185.78 152.57 187.19 152.91 188.59 153.43 190 152.9 191.41 153.16 192.81 152.84 194.22 151.72 195.63 150.34 197.03 148.34 198.44 142.56 199.84 135.81 201.25 131.25 202.66 127.53 204.06 122.47 205.47 117.53 206.88 113.58 208.28 109.22 209.69 105.89 211.09 104.19 212.5 103.31 213.91 102.03 215.31 101.31 216.72 103.09 218.13 103.08 219.53 104.75 220.94 106.53 222.34 108.44 223.75 108.41 225.16 109.16 226.56 110.31 227.97 109.83 229.38 108.11 230.78 106.89 232.19 108.11 233.59 109.31 235 109.56 236.41 110.73 237.81 109.78 239.22 108.86 240.63 112.06 242.03 113.11 243.44 112.94 244.84 111.31 246.25 111.34 247.66 108.58 249.06 108.33 250.47 108.44 251.88 109.59 253.28 110.13 254.69 110.19 256.1 110.13 257.5 106.83 258.92 107.67 260.31 108.58 261.73 108.38 263.13 108.2 264.54 106.55 265.94 101.36 267.36 95.53 268.75 88.94 270.17 83.75 271.56 80.98 272.98 79.88 274.38 80.47 275.79 87.81 277.19 93.06 278.61 97.5 280 106.81 281.42 113.42 282.82 114.94 284.23 115.52 285.63 115.97 287.04 114.11 288.44 116.16 289.86 115.34 291.25 116.27 292.67 113.19 294.07 112.63 295.48 113.98 296.88 111.09 298.3 107.72 299.69 108.78 301.11 109.44 302.5 112.3 303.92 111.58 305.32 111.63 306.73 110.86 308.13 109.73 309.55 107.3 310.94 108.31 312.36 108.8 313.76 109.02 315.17 109.61 316.57 107.3 317.98 107 319.38 110.77 320.8 112.06 322.19 112.3 323.61 112.34 325.01 113.31 326.42 112.52 327.82 113.5 329.24 115.08 330.63 116.83 332.05 117.36 333.44 118.45 334.86 120.45 336.26 120.45 337.67 118.81 339.07 119.14 340.49 119.5 341.88 118.61 343.3 112.78 344.7 107.89 346.11 104.61 347.51 107.38 348.92 108.38 350.32 108.67 351.74 107.83 353.13 111.78 354.55 116.94 355.95 116.5 357.36 112.81 358.76 111.92 360.18 111.78 361.57 112.31 362.99 111.44 364.38 111.53 365.8 109.34 367.2 107.61 368.61 108.44 370.01 109.14 371.43 108.61 372.82 108.08 374.24 108.92 375.64 107.81 377.05 108.39 378.45 110.09 379.86 112.58 381.26 113.36 382.68 113.69 384.07 115.3 385.49 115.83 386.89 115.08 388.3 115.75 389.7 116.22 391.12 116.28 392.51 115.09 393.93 113.86 395.32 107.98 396.74 105.61 398.14 105.27 399.55 105.94 400.95 105.23 402.37 105.08 403.76 106.22 405.18 105.69 406.58 104.64 407.99 104.5 409.39 104.41 410.8 103.91 412.2 103 413.62 103 415.01 101.38 416.43 101.69 417.83 103.36 419.24 104.72 420.64 104.17 422.06 103.86 423.45 104.5 424.87 101.28 426.26 99.41 427.68 98.67 429.08 94.58 430.49 93.58 431.89 93.19 433.31 95.5 434.7 96.05 436.12 97.75 437.52 100.28 438.93 105.94 440.33 107.98 441.74 107.81 443.14 108.78 444.56 108.08 445.95 107.5 447.37 109.89 448.77 113.25 450.18 114.77 451.58 116 453 117.47 454.39 116.22 455.81 115.97 457.2 116.59 458.62 117.53 460.02 117.31 461.43 117.36 462.83 117.83 464.25 117.17 465.64 116.42 467.06 117.92 468.46 119.14 469.87 119.03 471.27 118.84 472.69 119.53 474.08 118.5 475.5 120.98 476.89 121.5 478.31 122 479.71 120.06 481.12 110.58 482.52 104.02 483.94 96.63 485.33 88.53 486.75 80.63 488.15 74.56 489.56 70.72 490.96 75.39 492.37 84.42 493.77 91.02 495.19 95.42 496.58 104.42 498 113.56 499.4 121.33 500.81 127.03 502.21 128.04 503.63 124.72 505.02 124.14 506.44 125.11 507.83 130.19 509.25 135.62 510.65 136.15 512.05 134.59 513.47 131.72 514.88 129.29 516.27 129.31 517.68 124.5 519.1 117.08 520.5 114.75 521.9 116.25 523.3 113.77 524.72 112.3 526.13 112.89 527.52 114.39 528.93 114.53 530.35 114.25 531.75 115.22 533.15 115.42 534.57 116.16 535.97 117.36 537.38 118.97 538.77 119.64 540.18 118.92 541.6 119.61 543 119.14 544.4 119.28 545.82 120.11 547.22 120.16 548.63 119.31"/><line class="cls-9" x1="77.56" y1="99.98" x2="571.06" y2="99.98"/><rect class="cls-10" x="126.72" y="6.01" width="54.85" height="187.92"/><rect class="cls-11" x="99.99" y="99.98" width="1.41" height="93.96"/><rect class="cls-11" x="132.34" y="99.98" width="12.66" height="93.96"/><rect class="cls-11" x="232.2" y="99.98" width="2.81" height="93.96"/><rect class="cls-11" x="270.17" y="99.98" width="5.63" height="93.96"/><rect class="cls-11" x="347.52" y="99.98" width="2.81" height="93.96"/><rect class="cls-11" x="485.33" y="99.98" width="9.84" height="93.96"/><line class="cls-12" x1="112.65" y1="99.98" x2="112.65" y2="19.43"/><line class="cls-12" x1="126.72" y1="99.98" x2="126.72" y2="19.43"/><line class="cls-12" x1="133.75" y1="99.98" x2="133.75" y2="19.43"/><line class="cls-12" x1="181.56" y1="99.98" x2="181.56" y2="19.43"/><text class="cls-13" transform="translate(96.1 191.24)">a</text><text class="cls-13" transform="translate(134.08 191.24)">b</text><text class="cls-13" transform="translate(230.1 191.24)">c</text><text class="cls-13" transform="translate(269.08 191.24)">d</text><text class="cls-13" transform="translate(345.03 191.24)">e</text><text class="cls-13" transform="translate(489.02 191.24)">f</text><text class="cls-14" transform="translate(108.31 18.74)">A</text><text class="cls-14" transform="translate(120.97 18.74)">B</text><text class="cls-14" transform="translate(130.45 18.74)">C</text><text class="cls-14" transform="translate(176.87 18.74)">D</text><rect class="cls-15" x="77.56" y="6.01" width="493.49" height="187.92"/></g><text class="cls-16" transform="translate(39.03 171.75)">−50%</text><text class="cls-16" transform="translate(65.41 104.64)">0</text><text class="cls-16" transform="translate(39.03 37.53)">+50%</text><line class="cls-17" x1="74.83" y1="167.08" x2="77.56" y2="167.08"/><line class="cls-17" x1="74.83" y1="99.98" x2="77.56" y2="99.98"/><line class="cls-17" x1="74.83" y1="32.86" x2="77.56" y2="32.86"/><line class="cls-17" x1="99.99" y1="196.66" x2="99.99" y2="193.93"/><line class="cls-17" x1="184.37" y1="196.66" x2="184.37" y2="193.93"/><line class="cls-17" x1="270.17" y1="196.66" x2="270.17" y2="193.93"/><line class="cls-17" x1="355.96" y1="196.66" x2="355.96" y2="193.93"/><line class="cls-17" x1="443.14" y1="196.66" x2="443.14" y2="193.93"/><line class="cls-17" x1="528.94" y1="196.66" x2="528.94" y2="193.93"/><text class="cls-16" transform="translate(89.64 208.2)"><tspan class="cls-18">J</tspan><tspan x="6.24" y="0">an</tspan></text><text class="cls-16" transform="translate(173.18 208.2)">Mar</text><text class="cls-16" transform="translate(258.08 208.2)">M<tspan class="cls-19" x="10.83" y="0">a</tspan><tspan x="17.67" y="0">y</tspan></text><text class="cls-20" transform="translate(347.78 208.2)">J<tspan class="cls-21" x="6.24" y="0">ul</tspan></text><text class="cls-16" transform="translate(431.58 208.2)">Sep</text><text class="cls-16" transform="translate(517.48 208.2)">N<tspan class="cls-22" x="9.39" y="0">o</tspan><tspan x="16.42" y="0">v</tspan></text><text class="cls-23" transform="translate(16.78 164.63) rotate(-90)"><tspan class="cls-24">P</tspan><tspan x="9.25" y="0">ercentage change</tspan></text><text class="cls-23" transform="translate(32.98 160.33) rotate(-90)">in <tspan class="cls-25" x="15.84" y="0">n</tspan><tspan x="24.03" y="0">umber of visits</tspan></text><rect class="cls-2" x="357.04" y="13.26" width="17.28" height="17.28"/><line class="cls-6" x1="358.77" y1="21.9" x2="372.58" y2="21.9"/><rect class="cls-2" x="449.58" y="13.26" width="17.28" height="17.28"/><line class="cls-8" x1="451.3" y1="21.9" x2="465.12" y2="21.9"/><text class="cls-16" transform="translate(379.79 26.58)">Residential</text><text class="cls-16" transform="translate(472.33 26.58)">Non−residential</text></svg>