<svg id="图层_1" data-name="图层 1" xmlns="http://www.w3.org/2000/svg" xmlns:xlink="http://www.w3.org/1999/xlink" viewBox="0 0 577.07 217.07"><defs><style>.cls-1,.cls-12,.cls-14,.cls-3,.cls-9{fill:none;}.cls-2{fill:#fff;}.cls-3{stroke:#fff;}.cls-12,.cls-3{stroke-linecap:round;}.cls-12,.cls-14,.cls-3,.cls-9{stroke-linejoin:round;stroke-width:1.07px;}.cls-4{clip-path:url(#clip-path);}.cls-5{fill:#87bfdc;}.cls-6{fill:#f1c96c;}.cls-7{fill:#bebebe;opacity:0.5;}.cls-8{fill:#5ca076;opacity:0.3;}.cls-9{stroke:#ff4500;stroke-dasharray:4.27 4.27;}.cls-10{font-size:14px;fill:#006400;}.cls-10,.cls-11,.cls-13,.cls-17,.cls-20{font-family:Helvetica;}.cls-11,.cls-13,.cls-17{font-size:13px;}.cls-11{fill:#ff4500;}.cls-12,.cls-14{stroke:#333;}.cls-15,.cls-17{letter-spacing:-0.02em;}.cls-16{letter-spacing:-0.03em;}.cls-18{letter-spacing:0em;}.cls-19{letter-spacing:-0.02em;}.cls-20{font-size:15px;}.cls-21{letter-spacing:-0.05em;}.cls-22{letter-spacing:-0.01em;}</style><clipPath id="clip-path" transform="translate(0.54 0.54)"><rect class="cls-1" x="77.03" y="5.48" width="493.49" height="187.92"/></clipPath></defs><rect class="cls-2" x="0.54" y="0.54" width="576" height="216"/><rect class="cls-2" x="0.54" y="0.54" width="576" height="216"/><rect class="cls-3" x="0.54" y="0.54" width="576" height="216"/><g class="cls-4"><rect class="cls-2" x="77.56" y="6.01" width="493.49" height="187.92"/><rect class="cls-5" x="104.98" y="99.98" width="1.27" height="6.04"/><rect class="cls-5" x="114.83" y="99.97" width="1.27" height="12.01"/><rect class="cls-5" x="124.67" y="99.98" width="1.27" height="17.36"/><rect class="cls-5" x="134.51" y="99.97" width="1.27" height="14.76"/><rect class="cls-6" x="144.37" y="94.88" width="1.27" height="5.1"/><rect class="cls-6" x="154.2" y="79.04" width="1.27" height="20.94"/><rect class="cls-6" x="164.06" y="70.11" width="1.27" height="29.87"/><rect class="cls-6" x="173.9" y="72.25" width="1.27" height="27.73"/><rect class="cls-6" x="183.75" y="49.4" width="1.27" height="50.57"/><rect class="cls-6" x="193.59" y="49.86" width="1.27" height="50.12"/><rect class="cls-6" x="203.43" y="31.86" width="1.27" height="68.12"/><rect class="cls-6" x="213.28" y="27.04" width="1.27" height="72.94"/><rect class="cls-6" x="223.12" y="31.56" width="1.27" height="68.41"/><rect class="cls-6" x="232.96" y="48.34" width="1.27" height="51.63"/><rect class="cls-6" x="242.81" y="61.45" width="1.27" height="38.53"/><rect class="cls-6" x="252.65" y="59.58" width="1.27" height="40.4"/><rect class="cls-6" x="262.49" y="62.87" width="1.27" height="37.11"/><rect class="cls-6" x="272.34" y="60.37" width="1.27" height="39.61"/><rect class="cls-6" x="282.18" y="72.64" width="1.27" height="27.34"/><rect class="cls-6" x="292.04" y="74.54" width="1.27" height="25.44"/><rect class="cls-6" x="301.87" y="76.17" width="1.27" height="23.8"/><rect class="cls-6" x="311.73" y="74.83" width="1.27" height="25.15"/><rect class="cls-6" x="321.56" y="82.86" width="1.27" height="17.12"/><rect class="cls-6" x="331.42" y="90.63" width="1.27" height="9.35"/><rect class="cls-6" x="341.26" y="86.78" width="1.27" height="13.2"/><rect class="cls-6" x="351.09" y="84.79" width="1.27" height="15.19"/><rect class="cls-6" x="360.95" y="85.45" width="1.27" height="14.52"/><rect class="cls-6" x="370.79" y="87.84" width="1.27" height="12.13"/><rect class="cls-5" x="380.64" y="99.97" width="1.27" height="7.01"/><rect class="cls-5" x="390.48" y="99.98" width="1.27" height="11.71"/><rect class="cls-6" x="400.33" y="98.97" width="1.27" height="1.01"/><rect class="cls-6" x="410.17" y="98.47" width="1.27" height="1.51"/><rect class="cls-6" x="420.02" y="98.49" width="1.27" height="1.48"/><rect class="cls-6" x="429.86" y="87.48" width="1.27" height="12.49"/><rect class="cls-6" x="439.71" y="99.94" width="1.27" height="0.04"/><rect class="cls-5" x="449.55" y="99.98" width="1.27" height="8.21"/><rect class="cls-5" x="459.39" y="99.97" width="1.27" height="10.19"/><rect class="cls-5" x="469.24" y="99.98" width="1.27" height="14.67"/><rect class="cls-5" x="479.08" y="99.97" width="1.27" height="16.62"/><rect class="cls-5" x="488.93" y="99.98" width="1.27" height="14.29"/><rect class="cls-5" x="498.77" y="99.98" width="1.27" height="14.06"/><rect class="cls-5" x="508.61" y="99.96" width="1.27" height="21.95"/><rect class="cls-5" x="518.45" y="99.98" width="1.27" height="5.67"/><rect class="cls-5" x="528.31" y="99.97" width="1.27" height="2.11"/><rect class="cls-5" x="538.14" y="99.97" width="1.27" height="4.01"/><rect class="cls-5" x="106.4" y="99.97" width="1.27" height="6.23"/><rect class="cls-5" x="116.23" y="99.97" width="1.27" height="10.72"/><rect class="cls-5" x="126.09" y="99.98" width="1.27" height="20.35"/><rect class="cls-5" x="135.92" y="99.97" width="1.27" height="11.08"/><rect class="cls-6" x="145.76" y="91.89" width="1.27" height="8.09"/><rect class="cls-6" x="155.62" y="76.78" width="1.27" height="23.2"/><rect class="cls-6" x="165.45" y="69.14" width="1.27" height="30.84"/><rect class="cls-6" x="175.31" y="70.83" width="1.27" height="29.15"/><rect class="cls-6" x="185.15" y="46.03" width="1.27" height="53.95"/><rect class="cls-6" x="195" y="48.17" width="1.27" height="51.81"/><rect class="cls-6" x="204.84" y="28.39" width="1.27" height="71.59"/><rect class="cls-6" x="214.68" y="26.52" width="1.27" height="73.46"/><rect class="cls-6" x="224.53" y="33.9" width="1.27" height="66.08"/><rect class="cls-6" x="234.37" y="49.55" width="1.27" height="50.43"/><rect class="cls-6" x="244.21" y="60.12" width="1.27" height="39.85"/><rect class="cls-6" x="254.06" y="59.12" width="1.27" height="40.86"/><rect class="cls-6" x="263.9" y="63.42" width="1.27" height="36.55"/><rect class="cls-6" x="273.74" y="59.5" width="1.27" height="40.48"/><rect class="cls-6" x="283.59" y="73.18" width="1.27" height="26.79"/><rect class="cls-6" x="293.43" y="73.45" width="1.27" height="26.52"/><rect class="cls-6" x="303.29" y="76.48" width="1.27" height="23.5"/><rect class="cls-6" x="313.12" y="75.14" width="1.27" height="24.84"/><rect class="cls-6" x="322.98" y="83.26" width="1.27" height="16.72"/><rect class="cls-6" x="332.81" y="90.72" width="1.27" height="9.26"/><rect class="cls-6" x="342.67" y="82.56" width="1.27" height="17.42"/><rect class="cls-6" x="352.51" y="86.56" width="1.27" height="13.41"/><rect class="cls-6" x="362.36" y="85.23" width="1.27" height="14.74"/><rect class="cls-6" x="372.2" y="88.92" width="1.27" height="11.05"/><rect class="cls-5" x="382.04" y="99.98" width="1.27" height="7.41"/><rect class="cls-5" x="391.89" y="99.98" width="1.27" height="10.18"/><rect class="cls-6" x="401.73" y="98.6" width="1.27" height="1.38"/><rect class="cls-6" x="411.58" y="97.63" width="1.27" height="2.35"/><rect class="cls-6" x="421.42" y="98.17" width="1.27" height="1.81"/><rect class="cls-6" x="431.27" y="86.73" width="1.27" height="13.25"/><rect class="cls-6" x="441.11" y="99.56" width="1.27" height="0.42"/><rect class="cls-5" x="450.96" y="99.98" width="1.27" height="8.59"/><rect class="cls-5" x="460.8" y="99.97" width="1.27" height="10.8"/><rect class="cls-5" x="470.64" y="99.98" width="1.27" height="14.61"/><rect class="cls-5" x="480.49" y="99.98" width="1.27" height="12.31"/><rect class="cls-5" x="490.33" y="99.97" width="1.27" height="16.76"/><rect class="cls-5" x="500.18" y="99.98" width="1.27" height="14.81"/><rect class="cls-5" x="510.02" y="99.98" width="1.27" height="22.95"/><rect class="cls-5" x="519.87" y="99.98" width="1.27" height="2.56"/><rect class="cls-5" x="529.7" y="99.97" width="1.27" height="1.3"/><rect class="cls-5" x="539.56" y="99.97" width="1.27" height="3.19"/><rect class="cls-5" x="107.8" y="99.98" width="1.27" height="4.63"/><rect class="cls-5" x="117.65" y="99.98" width="1.27" height="8.18"/><rect class="cls-5" x="127.48" y="99.98" width="1.27" height="17.92"/><rect class="cls-5" x="137.34" y="99.97" width="1.27" height="10.78"/><rect class="cls-6" x="147.17" y="85.7" width="1.27" height="14.27"/><rect class="cls-6" x="157.03" y="70.67" width="1.27" height="29.31"/><rect class="cls-6" x="166.87" y="73.4" width="1.27" height="26.58"/><rect class="cls-6" x="176.7" y="68.28" width="1.27" height="31.7"/><rect class="cls-6" x="186.56" y="42.45" width="1.27" height="57.52"/><rect class="cls-6" x="196.4" y="44.84" width="1.27" height="55.13"/><rect class="cls-6" x="206.25" y="23.89" width="1.27" height="76.09"/><rect class="cls-6" x="216.09" y="26.46" width="1.27" height="73.51"/><rect class="cls-6" x="225.93" y="34.65" width="1.27" height="65.33"/><rect class="cls-6" x="235.78" y="48.75" width="1.27" height="51.23"/><rect class="cls-6" x="245.62" y="58.8" width="1.27" height="41.18"/><rect class="cls-6" x="255.46" y="57.11" width="1.27" height="42.87"/><rect class="cls-6" x="265.31" y="60.65" width="1.27" height="39.33"/><rect class="cls-6" x="275.15" y="60.12" width="1.27" height="39.85"/><rect class="cls-6" x="285.01" y="72.87" width="1.27" height="27.11"/><rect class="cls-6" x="294.84" y="72.68" width="1.27" height="27.29"/><rect class="cls-6" x="304.68" y="75.3" width="1.27" height="24.68"/><rect class="cls-6" x="314.54" y="73.77" width="1.27" height="26.21"/><rect class="cls-6" x="324.37" y="83.26" width="1.27" height="16.72"/><rect class="cls-6" x="334.23" y="89.39" width="1.27" height="10.59"/><rect class="cls-6" x="344.06" y="79.67" width="1.27" height="20.31"/><rect class="cls-6" x="353.92" y="86.08" width="1.27" height="13.9"/><rect class="cls-6" x="363.76" y="84.2" width="1.27" height="15.77"/><rect class="cls-6" x="373.61" y="89.7" width="1.27" height="10.28"/><rect class="cls-5" x="383.45" y="99.98" width="1.27" height="7.78"/><rect class="cls-5" x="393.3" y="99.98" width="1.27" height="6.92"/><rect class="cls-6" x="403.14" y="97.74" width="1.27" height="2.23"/><rect class="cls-6" x="412.98" y="96.38" width="1.27" height="3.6"/><rect class="cls-6" x="422.83" y="96.65" width="1.27" height="3.33"/><rect class="cls-6" x="432.67" y="86.81" width="1.27" height="13.16"/><rect class="cls-6" x="442.52" y="98.23" width="1.27" height="1.75"/><rect class="cls-5" x="452.36" y="99.97" width="1.27" height="8.28"/><rect class="cls-5" x="462.21" y="99.98" width="1.27" height="10.22"/><rect class="cls-5" x="472.05" y="99.97" width="1.27" height="12.99"/><rect class="cls-5" x="481.89" y="99.97" width="1.27" height="11.64"/><rect class="cls-5" x="491.74" y="99.98" width="1.27" height="16.14"/><rect class="cls-5" x="501.58" y="99.97" width="1.27" height="12.44"/><rect class="cls-5" x="511.43" y="99.98" width="1.27" height="20.73"/><rect class="cls-5" x="521.27" y="99.97" width="1.27" height="1.87"/><rect class="cls-6" x="531.12" y="99.96" width="1.27" height="0.02"/><rect class="cls-5" x="540.95" y="99.98" width="1.27" height="2.11"/><rect class="cls-5" x="109.2" y="99.97" width="1.27" height="3.17"/><rect class="cls-5" x="119.05" y="99.98" width="1.27" height="9.31"/><rect class="cls-5" x="128.9" y="99.98" width="1.27" height="17.02"/><rect class="cls-5" x="138.73" y="99.98" width="1.27" height="9.64"/><rect class="cls-6" x="148.59" y="80.59" width="1.27" height="19.38"/><rect class="cls-6" x="158.42" y="70.79" width="1.27" height="29.19"/><rect class="cls-6" x="168.28" y="73.12" width="1.27" height="26.85"/><rect class="cls-6" x="178.12" y="59.95" width="1.27" height="40.03"/><rect class="cls-6" x="187.96" y="46.73" width="1.27" height="53.25"/><rect class="cls-6" x="197.81" y="41.36" width="1.27" height="58.62"/><rect class="cls-6" x="207.65" y="22.99" width="1.27" height="76.98"/><rect class="cls-6" x="217.5" y="27.58" width="1.27" height="72.4"/><rect class="cls-6" x="227.34" y="34.42" width="1.27" height="65.55"/><rect class="cls-6" x="237.18" y="52.45" width="1.27" height="47.53"/><rect class="cls-6" x="247.03" y="58.77" width="1.27" height="41.21"/><rect class="cls-6" x="256.87" y="55.56" width="1.27" height="44.42"/><rect class="cls-6" x="266.71" y="61.95" width="1.27" height="38.02"/><rect class="cls-6" x="276.56" y="60.86" width="1.27" height="39.12"/><rect class="cls-6" x="286.4" y="73.47" width="1.27" height="26.51"/><rect class="cls-6" x="296.26" y="71.18" width="1.27" height="28.79"/><rect class="cls-6" x="306.09" y="75.31" width="1.27" height="24.67"/><rect class="cls-6" x="315.95" y="73.45" width="1.27" height="26.52"/><rect class="cls-6" x="325.79" y="84.73" width="1.27" height="15.24"/><rect class="cls-6" x="335.62" y="89.22" width="1.27" height="10.76"/><rect class="cls-6" x="345.48" y="78.98" width="1.27" height="20.99"/><rect class="cls-6" x="355.31" y="86.09" width="1.27" height="13.88"/><rect class="cls-6" x="365.17" y="83.68" width="1.27" height="16.29"/><rect class="cls-6" x="375.01" y="92.58" width="1.27" height="7.4"/><rect class="cls-5" x="384.86" y="99.97" width="1.27" height="10.45"/><rect class="cls-5" x="394.7" y="99.97" width="1.27" height="1.35"/><rect class="cls-6" x="404.55" y="99.2" width="1.27" height="0.78"/><rect class="cls-6" x="414.39" y="95.73" width="1.27" height="4.25"/><rect class="cls-6" x="424.24" y="95.08" width="1.27" height="4.9"/><rect class="cls-6" x="434.08" y="88.01" width="1.27" height="11.97"/><rect class="cls-6" x="443.92" y="99.28" width="1.27" height="0.7"/><rect class="cls-5" x="453.77" y="99.97" width="1.27" height="7.94"/><rect class="cls-5" x="463.61" y="99.98" width="1.27" height="10.96"/><rect class="cls-5" x="473.46" y="99.98" width="1.27" height="12.24"/><rect class="cls-5" x="483.3" y="99.98" width="1.27" height="13.74"/><rect class="cls-5" x="493.14" y="99.98" width="1.27" height="14.56"/><rect class="cls-5" x="502.99" y="99.98" width="1.27" height="10.68"/><rect class="cls-5" x="512.83" y="99.97" width="1.27" height="19.67"/><rect class="cls-5" x="522.68" y="99.98" width="1.27" height="0.47"/><rect class="cls-5" x="532.52" y="99.97" width="1.27" height="0.34"/><rect class="cls-5" x="542.37" y="99.97" width="1.27" height="2.3"/><rect class="cls-6" x="100.77" y="79.98" width="1.27" height="20"/><rect class="cls-5" x="110.62" y="99.97" width="1.27" height="5.95"/><rect class="cls-5" x="120.45" y="99.98" width="1.27" height="11.74"/><rect class="cls-5" x="130.29" y="99.98" width="1.27" height="20.3"/><rect class="cls-5" x="140.15" y="99.97" width="1.27" height="0.68"/><rect class="cls-6" x="149.98" y="83.48" width="1.27" height="16.5"/><rect class="cls-6" x="159.84" y="68.97" width="1.27" height="31.01"/><rect class="cls-6" x="169.67" y="73.42" width="1.27" height="26.55"/><rect class="cls-6" x="179.53" y="54.68" width="1.27" height="45.29"/><rect class="cls-6" x="189.37" y="48.08" width="1.27" height="51.9"/><rect class="cls-6" x="199.21" y="39.87" width="1.27" height="60.11"/><rect class="cls-6" x="209.06" y="23.3" width="1.27" height="76.68"/><rect class="cls-6" x="218.9" y="29.81" width="1.27" height="70.16"/><rect class="cls-6" x="228.75" y="38.73" width="1.27" height="61.25"/><rect class="cls-6" x="238.59" y="53.59" width="1.27" height="46.39"/><rect class="cls-6" x="248.43" y="58.03" width="1.27" height="41.95"/><rect class="cls-6" x="258.27" y="59.12" width="1.27" height="40.85"/><rect class="cls-6" x="268.12" y="62.51" width="1.27" height="37.47"/><rect class="cls-6" x="277.96" y="59.45" width="1.27" height="40.53"/><rect class="cls-6" x="287.81" y="79.79" width="1.27" height="20.19"/><rect class="cls-6" x="297.65" y="69.05" width="1.27" height="30.93"/><rect class="cls-6" x="307.51" y="75.12" width="1.27" height="24.86"/><rect class="cls-6" x="317.34" y="75" width="1.27" height="24.98"/><rect class="cls-6" x="327.2" y="86.79" width="1.27" height="13.19"/><rect class="cls-6" x="337.04" y="86.62" width="1.27" height="13.35"/><rect class="cls-6" x="346.89" y="84.81" width="1.27" height="15.16"/><rect class="cls-6" x="356.73" y="84.34" width="1.27" height="15.64"/><rect class="cls-6" x="366.56" y="83.26" width="1.27" height="16.72"/><rect class="cls-6" x="376.42" y="97.64" width="1.27" height="2.34"/><rect class="cls-5" x="386.26" y="99.98" width="1.27" height="10.93"/><path class="cls-6" d="M395.57,99.44h0Z" transform="translate(0.54 0.54)"/><rect class="cls-6" x="405.95" y="99.42" width="1.27" height="0.56"/><rect class="cls-6" x="415.8" y="96.56" width="1.27" height="3.42"/><rect class="cls-6" x="425.64" y="93.99" width="1.27" height="5.99"/><rect class="cls-6" x="435.49" y="91.25" width="1.27" height="8.73"/><rect class="cls-6" x="445.33" y="99.91" width="1.27" height="0.07"/><rect class="cls-5" x="455.18" y="99.97" width="1.27" height="8.97"/><rect class="cls-5" x="465.02" y="99.98" width="1.27" height="11.7"/><rect class="cls-5" x="474.86" y="99.98" width="1.27" height="13.77"/><rect class="cls-5" x="484.71" y="99.98" width="1.27" height="15.27"/><rect class="cls-5" x="494.55" y="99.98" width="1.27" height="11.97"/><rect class="cls-5" x="504.39" y="99.98" width="1.27" height="10.6"/><rect class="cls-5" x="514.24" y="99.97" width="1.27" height="18.89"/><rect class="cls-5" x="524.08" y="99.98" width="1.27" height="0.82"/><rect class="cls-5" x="533.93" y="99.98" width="1.27" height="0.96"/><rect class="cls-5" x="543.77" y="99.98" width="1.27" height="2.81"/><rect class="cls-6" x="102.17" y="77.31" width="1.27" height="22.66"/><rect class="cls-5" x="112.02" y="99.98" width="1.27" height="9.92"/><rect class="cls-5" x="121.87" y="99.98" width="1.27" height="11.41"/><rect class="cls-5" x="131.7" y="99.97" width="1.27" height="17.63"/><rect class="cls-6" x="141.56" y="99.59" width="1.27" height="0.39"/><rect class="cls-6" x="151.4" y="82.05" width="1.27" height="17.93"/><rect class="cls-6" x="161.23" y="68.2" width="1.27" height="31.77"/><rect class="cls-6" x="171.09" y="71.95" width="1.27" height="28.03"/><rect class="cls-6" x="180.92" y="52.98" width="1.27" height="47"/><rect class="cls-6" x="190.78" y="48.06" width="1.27" height="51.91"/><rect class="cls-6" x="200.62" y="36.68" width="1.27" height="63.29"/><rect class="cls-6" x="210.46" y="23.2" width="1.27" height="76.78"/><rect class="cls-6" x="220.31" y="30.4" width="1.27" height="69.57"/><rect class="cls-6" x="230.15" y="39.43" width="1.27" height="60.54"/><rect class="cls-6" x="240" y="57.4" width="1.27" height="42.58"/><rect class="cls-6" x="249.84" y="57.09" width="1.27" height="42.88"/><rect class="cls-6" x="259.68" y="59.77" width="1.27" height="40.21"/><rect class="cls-6" x="269.54" y="61.52" width="1.27" height="38.46"/><rect class="cls-6" x="279.37" y="64.15" width="1.27" height="35.82"/><rect class="cls-6" x="289.21" y="77.98" width="1.27" height="22"/><rect class="cls-6" x="299.06" y="69.65" width="1.27" height="30.32"/><rect class="cls-6" x="308.9" y="71.86" width="1.27" height="28.12"/><rect class="cls-6" x="318.76" y="79.59" width="1.27" height="20.38"/><rect class="cls-6" x="328.59" y="87.79" width="1.27" height="12.19"/><rect class="cls-6" x="338.45" y="85.87" width="1.27" height="14.11"/><rect class="cls-6" x="348.29" y="85.89" width="1.27" height="14.09"/><rect class="cls-6" x="358.14" y="82.53" width="1.27" height="17.45"/><rect class="cls-6" x="367.98" y="84.4" width="1.27" height="15.57"/><rect class="cls-5" x="377.83" y="99.97" width="1.27" height="0.58"/><rect class="cls-5" x="387.67" y="99.98" width="1.27" height="11.1"/><rect class="cls-6" x="397.51" y="98.76" width="1.27" height="1.22"/><rect class="cls-6" x="407.36" y="99.08" width="1.27" height="0.9"/><rect class="cls-6" x="417.2" y="96.73" width="1.27" height="3.25"/><rect class="cls-6" x="427.05" y="92.02" width="1.27" height="7.96"/><rect class="cls-6" x="436.89" y="93.24" width="1.27" height="6.74"/><rect class="cls-5" x="446.74" y="99.97" width="1.27" height="1.74"/><rect class="cls-5" x="456.58" y="99.98" width="1.27" height="8.96"/><rect class="cls-5" x="466.43" y="99.97" width="1.27" height="13.15"/><rect class="cls-5" x="476.27" y="99.98" width="1.27" height="13.38"/><rect class="cls-5" x="486.11" y="99.98" width="1.27" height="14.91"/><rect class="cls-5" x="495.96" y="99.98" width="1.27" height="11.14"/><rect class="cls-5" x="505.8" y="99.98" width="1.27" height="10.54"/><rect class="cls-5" x="515.64" y="99.98" width="1.27" height="18.24"/><rect class="cls-5" x="525.49" y="99.97" width="1.27" height="1.23"/><rect class="cls-5" x="535.33" y="99.97" width="1.27" height="0.94"/><rect class="cls-5" x="545.18" y="99.98" width="1.27" height="2.86"/><rect class="cls-6" x="103.58" y="84.44" width="1.27" height="15.54"/><rect class="cls-5" x="113.42" y="99.98" width="1.27" height="13.24"/><rect class="cls-5" x="123.27" y="99.98" width="1.27" height="13.63"/><rect class="cls-5" x="133.12" y="99.97" width="1.27" height="17.74"/><rect class="cls-6" x="142.95" y="97.24" width="1.27" height="2.74"/><rect class="cls-6" x="152.81" y="81.05" width="1.27" height="18.93"/><rect class="cls-6" x="162.65" y="70.23" width="1.27" height="29.74"/><rect class="cls-6" x="172.5" y="72.7" width="1.27" height="27.28"/><rect class="cls-6" x="182.34" y="52.27" width="1.27" height="47.71"/><rect class="cls-6" x="192.17" y="49.76" width="1.27" height="50.22"/><rect class="cls-6" x="202.03" y="36.05" width="1.27" height="63.93"/><rect class="cls-6" x="211.87" y="26.37" width="1.27" height="73.6"/><rect class="cls-6" x="221.71" y="32.21" width="1.27" height="67.76"/><rect class="cls-6" x="231.56" y="44.29" width="1.27" height="55.69"/><rect class="cls-6" x="241.4" y="60.51" width="1.27" height="39.47"/><rect class="cls-6" x="251.25" y="58.81" width="1.27" height="41.17"/><rect class="cls-6" x="261.09" y="61.67" width="1.27" height="38.3"/><rect class="cls-6" x="270.93" y="61.34" width="1.27" height="38.63"/><rect class="cls-6" x="280.79" y="71.08" width="1.27" height="28.9"/><rect class="cls-6" x="290.62" y="78.9" width="1.27" height="21.07"/><rect class="cls-6" x="300.48" y="71.39" width="1.27" height="28.59"/><rect class="cls-6" x="310.31" y="74.4" width="1.27" height="25.57"/><rect class="cls-6" x="320.15" y="81.81" width="1.27" height="18.16"/><rect class="cls-6" x="330.01" y="90.19" width="1.27" height="9.79"/><rect class="cls-6" x="339.84" y="86.75" width="1.27" height="13.23"/><rect class="cls-6" x="349.7" y="87.15" width="1.27" height="12.83"/><rect class="cls-6" x="359.54" y="83.4" width="1.27" height="16.57"/><rect class="cls-6" x="369.39" y="86.9" width="1.27" height="13.07"/><rect class="cls-5" x="379.23" y="99.97" width="1.27" height="5.48"/><rect class="cls-5" x="389.08" y="99.98" width="1.27" height="11.5"/><rect class="cls-6" x="398.92" y="99.69" width="1.27" height="0.29"/><rect class="cls-6" x="408.77" y="99.63" width="1.27" height="0.35"/><rect class="cls-6" x="418.61" y="98.19" width="1.27" height="1.79"/><rect class="cls-6" x="428.45" y="88.42" width="1.27" height="11.55"/><rect class="cls-6" x="438.3" y="98.6" width="1.27" height="1.38"/><rect class="cls-5" x="448.14" y="99.98" width="1.27" height="6.61"/><rect class="cls-5" x="457.99" y="99.97" width="1.27" height="9.96"/><rect class="cls-5" x="467.83" y="99.97" width="1.27" height="15.25"/><rect class="cls-5" x="477.68" y="99.97" width="1.27" height="15.38"/><rect class="cls-5" x="487.52" y="99.97" width="1.27" height="15.05"/><rect class="cls-5" x="497.36" y="99.98" width="1.27" height="13.13"/><rect class="cls-5" x="507.21" y="99.97" width="1.27" height="15.63"/><rect class="cls-5" x="517.06" y="99.98" width="1.27" height="13.75"/><rect class="cls-5" x="526.89" y="99.97" width="1.27" height="2.64"/><rect class="cls-5" x="536.75" y="99.97" width="1.27" height="3.12"/><rect class="cls-5" x="546.58" y="99.98" width="1.27" height="3.5"/><rect class="cls-7" x="126.72" y="6.01" width="54.85" height="187.92"/><rect class="cls-8" x="99.99" y="99.98" width="1.41" height="93.96"/><rect class="cls-8" x="132.34" y="99.98" width="12.66" height="93.96"/><rect class="cls-8" x="232.2" y="99.98" width="2.81" height="93.96"/><rect class="cls-8" x="270.17" y="99.98" width="5.63" height="93.96"/><rect class="cls-8" x="347.52" y="99.98" width="2.81" height="93.96"/><rect class="cls-8" x="485.33" y="99.98" width="9.84" height="93.96"/><line class="cls-9" x1="112.65" y1="99.98" x2="112.65" y2="19.43"/><line class="cls-9" x1="126.72" y1="99.98" x2="126.72" y2="19.43"/><line class="cls-9" x1="133.75" y1="99.98" x2="133.75" y2="19.43"/><line class="cls-9" x1="181.56" y1="99.98" x2="181.56" y2="19.43"/><text class="cls-10" transform="translate(96.1 191.24)">a</text><text class="cls-10" transform="translate(134.08 191.24)">b</text><text class="cls-10" transform="translate(230.1 191.24)">c</text><text class="cls-10" transform="translate(269.08 191.24)">d</text><text class="cls-10" transform="translate(345.03 191.24)">e</text><text class="cls-10" transform="translate(489.02 191.24)">f</text><text class="cls-11" transform="translate(108.31 18.74)">A</text><text class="cls-11" transform="translate(120.97 18.74)">B</text><text class="cls-11" transform="translate(130.45 18.74)">C</text><text class="cls-11" transform="translate(176.87 18.74)">D</text><rect class="cls-12" x="77.56" y="6.01" width="493.49" height="187.92"/></g><text class="cls-13" transform="translate(39.03 171.75)">−50%</text><text class="cls-13" transform="translate(65.41 104.64)">0</text><text class="cls-13" transform="translate(39.03 37.53)">+50%</text><line class="cls-14" x1="74.83" y1="167.08" x2="77.56" y2="167.08"/><line class="cls-14" x1="74.83" y1="99.98" x2="77.56" y2="99.98"/><line class="cls-14" x1="74.83" y1="32.86" x2="77.56" y2="32.86"/><line class="cls-14" x1="99.99" y1="196.66" x2="99.99" y2="193.93"/><line class="cls-14" x1="184.37" y1="196.66" x2="184.37" y2="193.93"/><line class="cls-14" x1="270.17" y1="196.66" x2="270.17" y2="193.93"/><line class="cls-14" x1="355.96" y1="196.66" x2="355.96" y2="193.93"/><line class="cls-14" x1="443.14" y1="196.66" x2="443.14" y2="193.93"/><line class="cls-14" x1="528.94" y1="196.66" x2="528.94" y2="193.93"/><text class="cls-13" transform="translate(89.64 208.2)"><tspan class="cls-15">J</tspan><tspan x="6.24" y="0">an</tspan></text><text class="cls-13" transform="translate(173.18 208.2)">Mar</text><text class="cls-13" transform="translate(258.08 208.2)">M<tspan class="cls-16" x="10.83" y="0">a</tspan><tspan x="17.67" y="0">y</tspan></text><text class="cls-17" transform="translate(347.78 208.2)">J<tspan class="cls-18" x="6.24" y="0">ul</tspan></text><text class="cls-13" transform="translate(431.58 208.2)">Sep</text><text class="cls-13" transform="translate(517.48 208.2)">N<tspan class="cls-19" x="9.39" y="0">o</tspan><tspan x="16.42" y="0">v</tspan></text><text class="cls-20" transform="translate(16.78 164.63) rotate(-90)"><tspan class="cls-21">P</tspan><tspan x="9.25" y="0">ercentage change</tspan></text><text class="cls-20" transform="translate(32.98 160.33) rotate(-90)">in <tspan class="cls-22" x="15.84" y="0">n</tspan><tspan x="24.03" y="0">umber of visits</tspan></text></svg>